LisuNew-Regular.ufo
<glyph name="quotedbl" format="2">
  <advance width="717"/>
  <unicode hex="0022"/>
  <outline>
    <contour>
      <point x="606" y="1001" type="line" smooth="yes"/>
      <point x="606" y="970"/>
      <point x="596" y="903"/>
      <point x="575" y="801" type="curve"/>
      <point x="471" y="801" type="line"/>
      <point x="450" y="903"/>
      <point x="440" y="970"/>
      <point x="440" y="1001" type="curve" smooth="yes"/>
      <point x="440" y="1204" type="line"/>
      <point x="606" y="1204" type="line"/>
    </contour>
    <contour>
      <point x="281" y="1001" type="line" smooth="yes"/>
      <point x="281" y="968"/>
      <point x="271" y="902"/>
      <point x="252" y="801" type="curve"/>
      <point x="145" y="801" type="line"/>
      <point x="125" y="903"/>
      <point x="115" y="970"/>
      <point x="115" y="1001" type="curve" smooth="yes"/>
      <point x="115" y="1204" type="line"/>
      <point x="281" y="1204" type="line"/>
    </contour>
  </outline>
</glyph>
<glyph name="dollar" format="2">
  <advance width="901"/>
  <unicode hex="0024"/>
  <outline>
    <contour>
      <point x="815" y="313" type="curve" smooth="yes"/>
      <point x="815" y="141"/>
      <point x="688" y="0"/>
      <point x="516" y="-23" type="curve"/>
      <point x="516" y="-156" type="line"/>
      <point x="406" y="-156" type="line"/>
      <point x="406" y="-27" type="line"/>
      <point x="215" y="8"/>
      <point x="113" y="124"/>
      <point x="100" y="322" type="curve"/>
      <point x="258" y="350" type="line"/>
      <point x="265" y="239"/>
      <point x="314" y="162"/>
      <point x="406" y="117" type="curve"/>
      <point x="406" y="496" type="line"/>
      <point x="216" y="541"/>
      <point x="121" y="638"/>
      <point x="121" y="788" type="curve" smooth="yes"/>
      <point x="121" y="871"/>
      <point x="148" y="941"/>
      <point x="203" y="997" type="curve" smooth="yes"/>
      <point x="254" y="1050"/>
      <point x="321" y="1084"/>
      <point x="406" y="1098" type="curve"/>
      <point x="406" y="1159" type="line"/>
      <point x="516" y="1159" type="line"/>
      <point x="516" y="1098" type="line"/>
      <point x="667" y="1072"/>
      <point x="760" y="975"/>
      <point x="795" y="807" type="curve"/>
      <point x="631" y="782" type="line"/>
      <point x="622" y="848"/>
      <point x="584" y="906"/>
      <point x="516" y="956" type="curve"/>
      <point x="516" y="635" type="line"/>
      <point x="715" y="583"/>
      <point x="815" y="476"/>
    </contour>
    <contour>
      <point x="406" y="657" type="curve"/>
      <point x="406" y="952" type="line"/>
      <point x="324" y="921"/>
      <point x="283" y="869"/>
      <point x="283" y="797" type="curve" smooth="yes"/>
      <point x="283" y="744"/>
      <point x="324" y="697"/>
    </contour>
    <contour>
      <point x="651" y="303" type="curve" smooth="yes"/>
      <point x="651" y="374"/>
      <point x="606" y="430"/>
      <point x="516" y="469" type="curve"/>
      <point x="516" y="117" type="line"/>
      <point x="606" y="162"/>
      <point x="651" y="224"/>
    </contour>
  </outline>
</glyph>
<glyph name="percent" format="2">
  <advance width="1348"/>
  <unicode hex="0025"/>
  <outline>
    <contour>
      <point x="1262" y="254" type="curve" smooth="yes"/>
      <point x="1262" y="176"/>
      <point x="1241" y="109"/>
      <point x="1198" y="53" type="curve" smooth="yes"/>
      <point x="1151" y="-8"/>
      <point x="1091" y="-39"/>
      <point x="1016" y="-39" type="curve" smooth="yes"/>
      <point x="939" y="-39"/>
      <point x="879" y="-7"/>
      <point x="836" y="57" type="curve" smooth="yes"/>
      <point x="797" y="113"/>
      <point x="778" y="181"/>
      <point x="778" y="262" type="curve" smooth="yes"/>
      <point x="778" y="337"/>
      <point x="799" y="402"/>
      <point x="840" y="457" type="curve" smooth="yes"/>
      <point x="885" y="518"/>
      <point x="943" y="549"/>
      <point x="1016" y="549" type="curve" smooth="yes"/>
      <point x="1091" y="549"/>
      <point x="1151" y="518"/>
      <point x="1198" y="455" type="curve" smooth="yes"/>
      <point x="1241" y="399"/>
      <point x="1262" y="332"/>
    </contour>
    <contour>
      <point x="1053" y="1100" type="line"/>
      <point x="461" y="-39" type="line"/>
      <point x="311" y="-39" type="line"/>
      <point x="903" y="1100" type="line"/>
    </contour>
    <contour>
      <point x="586" y="803" type="curve" smooth="yes"/>
      <point x="586" y="725"/>
      <point x="565" y="658"/>
      <point x="522" y="602" type="curve" smooth="yes"/>
      <point x="476" y="541"/>
      <point x="415" y="510"/>
      <point x="340" y="510" type="curve" smooth="yes"/>
      <point x="262" y="510"/>
      <point x="201" y="542"/>
      <point x="158" y="606" type="curve" smooth="yes"/>
      <point x="119" y="661"/>
      <point x="100" y="729"/>
      <point x="100" y="811" type="curve" smooth="yes"/>
      <point x="100" y="890"/>
      <point x="120" y="957"/>
      <point x="160" y="1010" type="curve" smooth="yes"/>
      <point x="203" y="1070"/>
      <point x="263" y="1100"/>
      <point x="340" y="1100" type="curve" smooth="yes"/>
      <point x="415" y="1100"/>
      <point x="476" y="1069"/>
      <point x="522" y="1006" type="curve" smooth="yes"/>
      <point x="565" y="949"/>
      <point x="586" y="881"/>
    </contour>
    <contour>
      <point x="1116" y="260" type="curve" smooth="yes"/>
      <point x="1116" y="369"/>
      <point x="1084" y="424"/>
      <point x="1020" y="424" type="curve" smooth="yes"/>
      <point x="957" y="424"/>
      <point x="926" y="369"/>
      <point x="926" y="258" type="curve" smooth="yes"/>
      <point x="926" y="142"/>
      <point x="958" y="84"/>
      <point x="1022" y="84" type="curve" smooth="yes"/>
      <point x="1085" y="84"/>
      <point x="1116" y="143"/>
    </contour>
    <contour>
      <point x="436" y="791" type="curve" smooth="yes"/>
      <point x="436" y="914"/>
      <point x="405" y="975"/>
      <point x="344" y="975" type="curve" smooth="yes"/>
      <point x="280" y="975"/>
      <point x="248" y="918"/>
      <point x="248" y="805" type="curve" smooth="yes"/>
      <point x="248" y="690"/>
      <point x="280" y="633"/>
      <point x="344" y="633" type="curve" smooth="yes"/>
      <point x="405" y="633"/>
      <point x="436" y="686"/>
    </contour>
  </outline>
</glyph>
<glyph name="quotesingle" format="2">
  <advance width="392"/>
  <unicode hex="0027"/>
  <outline>
    <contour>
      <point x="279" y="1001" type="line" smooth="yes"/>
      <point x="279" y="970"/>
      <point x="269" y="903"/>
      <point x="248" y="801" type="curve"/>
      <point x="144" y="801" type="line"/>
      <point x="123" y="903"/>
      <point x="113" y="970"/>
      <point x="113" y="1001" type="curve" smooth="yes"/>
      <point x="113" y="1204" type="line"/>
      <point x="279" y="1204" type="line"/>
    </contour>
  </outline>
</glyph>
<glyph name="parenleft" format="2">
  <advance width="731"/>
  <unicode hex="0028"/>
  <outline>
    <contour>
      <point x="588" y="-238" type="curve"/>
      <point x="477" y="-238" type="line"/>
      <point x="294" y="26"/>
      <point x="203" y="279"/>
      <point x="203" y="520" type="curve" smooth="yes"/>
      <point x="203" y="740"/>
      <point x="294" y="987"/>
      <point x="477" y="1260" type="curve"/>
      <point x="586" y="1260" type="line"/>
      <point x="440" y="970"/>
      <point x="367" y="720"/>
      <point x="367" y="510" type="curve" smooth="yes"/>
      <point x="367" y="285"/>
      <point x="441" y="35"/>
    </contour>
  </outline>
</glyph>
<glyph name="parenright" format="2">
  <advance width="731"/>
  <unicode hex="0029"/>
  <outline>
    <contour>
      <point x="573" y="512" type="curve" smooth="yes"/>
      <point x="573" y="276"/>
      <point x="482" y="26"/>
      <point x="301" y="-238" type="curve"/>
      <point x="190" y="-238" type="line"/>
      <point x="338" y="37"/>
      <point x="412" y="286"/>
      <point x="412" y="510" type="curve" smooth="yes"/>
      <point x="412" y="733"/>
      <point x="337" y="983"/>
      <point x="188" y="1260" type="curve"/>
      <point x="301" y="1260" type="line"/>
      <point x="482" y="987"/>
      <point x="573" y="737"/>
    </contour>
  </outline>
</glyph>
<glyph name="plus" format="2">
  <advance width="940"/>
  <unicode hex="002B"/>
  <outline>
    <contour>
      <point x="848" y="502" type="line"/>
      <point x="567" y="502" type="line"/>
      <point x="567" y="219" type="line"/>
      <point x="414" y="219" type="line"/>
      <point x="414" y="502" type="line"/>
      <point x="133" y="502" type="line"/>
      <point x="133" y="651" type="line"/>
      <point x="414" y="651" type="line"/>
      <point x="414" y="932" type="line"/>
      <point x="567" y="932" type="line"/>
      <point x="567" y="651" type="line"/>
      <point x="848" y="651" type="line"/>
    </contour>
  </outline>
</glyph>
<glyph name="slash" format="2">
  <advance width="737"/>
  <unicode hex="002F"/>
  <outline>
    <contour>
      <point x="700" y="1212" type="line"/>
      <point x="164" y="-186" type="line"/>
      <point x="49" y="-152" type="line"/>
      <point x="580" y="1233" type="line"/>
    </contour>
  </outline>
</glyph>
<glyph name="zero" format="2">
  <advance width="971"/>
  <unicode hex="0030"/>
  <outline>
    <contour>
      <point x="838" y="537" type="curve" smooth="yes"/>
      <point x="838" y="395"/>
      <point x="815" y="275"/>
      <point x="768" y="178" type="curve" smooth="yes"/>
      <point x="705" y="49"/>
      <point x="612" y="-16"/>
      <point x="487" y="-16" type="curve" smooth="yes"/>
      <point x="362" y="-16"/>
      <point x="268" y="49"/>
      <point x="205" y="180" type="curve" smooth="yes"/>
      <point x="157" y="280"/>
      <point x="133" y="400"/>
      <point x="133" y="541" type="curve" smooth="yes"/>
      <point x="133" y="683"/>
      <point x="157" y="804"/>
      <point x="205" y="905" type="curve" smooth="yes"/>
      <point x="268" y="1038"/>
      <point x="361" y="1104"/>
      <point x="485" y="1104" type="curve" smooth="yes"/>
      <point x="611" y="1104"/>
      <point x="705" y="1037"/>
      <point x="768" y="903" type="curve" smooth="yes"/>
      <point x="815" y="804"/>
      <point x="838" y="682"/>
    </contour>
    <contour>
      <point x="682" y="541" type="curve" smooth="yes"/>
      <point x="682" y="812"/>
      <point x="616" y="948"/>
      <point x="483" y="948" type="curve" smooth="yes"/>
      <point x="355" y="948"/>
      <point x="291" y="821"/>
      <point x="291" y="567" type="curve" smooth="yes"/>
      <point x="291" y="280"/>
      <point x="356" y="137"/>
      <point x="485" y="137" type="curve" smooth="yes"/>
      <point x="616" y="137"/>
      <point x="682" y="272"/>
    </contour>
  </outline>
</glyph>
<glyph name="one" format="2">
  <advance width="971"/>
  <unicode hex="0031"/>
  <outline>
    <contour>
      <point x="635" y="4" type="line"/>
      <point x="479" y="4" type="line"/>
      <point x="479" y="811" type="line"/>
      <point x="398" y="744"/>
      <point x="316" y="693"/>
      <point x="233" y="657" type="curve"/>
      <point x="233" y="817" type="line"/>
      <point x="371" y="890"/>
      <point x="463" y="980"/>
      <point x="508" y="1087" type="curve"/>
      <point x="635" y="1087" type="line"/>
    </contour>
  </outline>
</glyph>
<glyph name="two" format="2">
  <advance width="971"/>
  <unicode hex="0032"/>
  <outline>
    <contour>
      <point x="848" y="4" type="line"/>
      <point x="133" y="4" type="line"/>
      <point x="133" y="106" type="line" smooth="yes"/>
      <point x="133" y="162"/>
      <point x="181" y="232"/>
      <point x="276" y="317" type="curve" smooth="yes"/>
      <point x="337" y="368"/>
      <point x="426" y="445"/>
      <point x="543" y="549" type="curve" smooth="yes"/>
      <point x="638" y="636"/>
      <point x="686" y="718"/>
      <point x="686" y="795" type="curve" smooth="yes"/>
      <point x="686" y="884"/>
      <point x="601" y="946"/>
      <point x="508" y="946" type="curve" smooth="yes"/>
      <point x="451" y="946"/>
      <point x="403" y="931"/>
      <point x="365" y="901" type="curve" smooth="yes"/>
      <point x="322" y="868"/>
      <point x="298" y="825"/>
      <point x="293" y="770" type="curve"/>
      <point x="141" y="784" type="line"/>
      <point x="161" y="979"/>
      <point x="313" y="1100"/>
      <point x="510" y="1100" type="curve" smooth="yes"/>
      <point x="599" y="1100"/>
      <point x="676" y="1073"/>
      <point x="743" y="1020" type="curve" smooth="yes"/>
      <point x="813" y="963"/>
      <point x="848" y="890"/>
      <point x="848" y="803" type="curve" smooth="yes"/>
      <point x="848" y="706"/>
      <point x="808" y="611"/>
      <point x="729" y="518" type="curve" smooth="yes"/>
      <point x="698" y="481"/>
      <point x="621" y="408"/>
      <point x="498" y="299" type="curve" smooth="yes"/>
      <point x="455" y="261"/>
      <point x="405" y="215"/>
      <point x="348" y="162" type="curve"/>
      <point x="848" y="162" type="line"/>
    </contour>
  </outline>
</glyph>
<glyph name="four" format="2">
  <advance width="971"/>
  <unicode hex="0034"/>
  <outline>
    <contour>
      <point x="893" y="248" type="line"/>
      <point x="768" y="248" type="line"/>
      <point x="768" y="4" type="line"/>
      <point x="610" y="4" type="line"/>
      <point x="610" y="248" type="line"/>
      <point x="123" y="248" type="line"/>
      <point x="123" y="393" type="line"/>
      <point x="623" y="1087" type="line"/>
      <point x="768" y="1087" type="line"/>
      <point x="768" y="406" type="line"/>
      <point x="893" y="406" type="line"/>
    </contour>
    <contour>
      <point x="610" y="406" type="line"/>
      <point x="610" y="819" type="line"/>
      <point x="309" y="406" type="line"/>
    </contour>
  </outline>
</glyph>
<glyph name="five" format="2">
  <advance width="971"/>
  <unicode hex="0035"/>
  <outline>
    <contour>
      <point x="831" y="367" type="curve" smooth="yes"/>
      <point x="831" y="146"/>
      <point x="684" y="-25"/>
      <point x="465" y="-25" type="curve" smooth="yes"/>
      <point x="312" y="-25"/>
      <point x="202" y="54"/>
      <point x="133" y="211" type="curve"/>
      <point x="293" y="254" type="line"/>
      <point x="320" y="178"/>
      <point x="398" y="123"/>
      <point x="477" y="123" type="curve" smooth="yes"/>
      <point x="537" y="123"/>
      <point x="586" y="148"/>
      <point x="623" y="197" type="curve" smooth="yes"/>
      <point x="657" y="242"/>
      <point x="674" y="295"/>
      <point x="674" y="356" type="curve" smooth="yes"/>
      <point x="674" y="485"/>
      <point x="594" y="594"/>
      <point x="469" y="594" type="curve" smooth="yes"/>
      <point x="406" y="594"/>
      <point x="349" y="562"/>
      <point x="297" y="498" type="curve"/>
      <point x="147" y="518" type="line"/>
      <point x="250" y="1090" type="line"/>
      <point x="793" y="1090" type="line"/>
      <point x="793" y="930" type="line"/>
      <point x="379" y="930" type="line"/>
      <point x="338" y="705" type="line"/>
      <point x="406" y="735"/>
      <point x="461" y="750"/>
      <point x="504" y="750" type="curve" smooth="yes"/>
      <point x="603" y="750"/>
      <point x="684" y="710"/>
      <point x="745" y="629" type="curve" smooth="yes"/>
      <point x="802" y="555"/>
      <point x="831" y="468"/>
    </contour>
  </outline>
</glyph>
<glyph name="six" format="2">
  <advance width="971"/>
  <unicode hex="0036"/>
  <outline>
    <contour>
      <point x="846" y="336" type="curve" smooth="yes"/>
      <point x="846" y="128"/>
      <point x="713" y="-18"/>
      <point x="508" y="-18" type="curve" smooth="yes"/>
      <point x="374" y="-18"/>
      <point x="275" y="35"/>
      <point x="211" y="141" type="curve" smooth="yes"/>
      <point x="159" y="227"/>
      <point x="133" y="342"/>
      <point x="133" y="485" type="curve" smooth="yes"/>
      <point x="133" y="645"/>
      <point x="158" y="779"/>
      <point x="207" y="887" type="curve" smooth="yes"/>
      <point x="274" y="1033"/>
      <point x="377" y="1106"/>
      <point x="518" y="1106" type="curve" smooth="yes"/>
      <point x="671" y="1106"/>
      <point x="789" y="1016"/>
      <point x="829" y="868" type="curve"/>
      <point x="674" y="825" type="line"/>
      <point x="654" y="900"/>
      <point x="591" y="952"/>
      <point x="518" y="952" type="curve" smooth="yes"/>
      <point x="449" y="952"/>
      <point x="393" y="909"/>
      <point x="352" y="823" type="curve" smooth="yes"/>
      <point x="321" y="758"/>
      <point x="302" y="684"/>
      <point x="297" y="602" type="curve"/>
      <point x="360" y="662"/>
      <point x="431" y="692"/>
      <point x="512" y="692" type="curve" smooth="yes"/>
      <point x="712" y="692"/>
      <point x="846" y="537"/>
    </contour>
    <contour>
      <point x="686" y="340" type="curve" smooth="yes"/>
      <point x="686" y="449"/>
      <point x="609" y="541"/>
      <point x="502" y="541" type="curve" smooth="yes"/>
      <point x="393" y="541"/>
      <point x="313" y="448"/>
      <point x="313" y="336" type="curve" smooth="yes"/>
      <point x="313" y="227"/>
      <point x="391" y="131"/>
      <point x="498" y="131" type="curve" smooth="yes"/>
      <point x="610" y="131"/>
      <point x="686" y="225"/>
    </contour>
  </outline>
</glyph>
<glyph name="less" format="2">
  <advance width="930"/>
  <unicode hex="003C"/>
  <outline>
    <contour>
      <point x="825" y="176" type="line"/>
      <point x="111" y="469" type="line"/>
      <point x="111" y="600" type="line"/>
      <point x="825" y="889" type="line"/>
      <point x="825" y="735" type="line"/>
      <point x="309" y="535" type="line"/>
      <point x="825" y="330" type="line"/>
    </contour>
  </outline>
</glyph>
<glyph name="greater" format="2">
  <advance width="963"/>
  <unicode hex="003E"/>
  <outline>
    <contour>
      <point x="848" y="469" type="line"/>
      <point x="133" y="176" type="line"/>
      <point x="133" y="328" type="line"/>
      <point x="647" y="535" type="line"/>
      <point x="133" y="735" type="line"/>
      <point x="133" y="889" type="line"/>
      <point x="848" y="600" type="line"/>
    </contour>
  </outline>
</glyph>
<glyph name="question" format="2">
  <advance width="936"/>
  <unicode hex="003F"/>
  <outline>
    <contour>
      <point x="809" y="877" type="curve" smooth="yes"/>
      <point x="809" y="780"/>
      <point x="786" y="706"/>
      <point x="739" y="655" type="curve"/>
      <point x="709" y="630"/>
      <point x="665" y="593"/>
      <point x="608" y="543" type="curve" smooth="yes"/>
      <point x="561" y="498"/>
      <point x="536" y="429"/>
      <point x="535" y="338" type="curve"/>
      <point x="391" y="338" type="line"/>
      <point x="390" y="354"/>
      <point x="389" y="370"/>
      <point x="389" y="387" type="curve" smooth="yes"/>
      <point x="389" y="460"/>
      <point x="412" y="523"/>
      <point x="459" y="578" type="curve" smooth="yes"/>
      <point x="488" y="608"/>
      <point x="531" y="654"/>
      <point x="588" y="715" type="curve" smooth="yes"/>
      <point x="634" y="766"/>
      <point x="657" y="817"/>
      <point x="657" y="870" type="curve" smooth="yes"/>
      <point x="657" y="966"/>
      <point x="568" y="1040"/>
      <point x="469" y="1040" type="curve" smooth="yes"/>
      <point x="360" y="1040"/>
      <point x="295" y="970"/>
      <point x="274" y="829" type="curve"/>
      <point x="123" y="848" type="line"/>
      <point x="150" y="1047"/>
      <point x="270" y="1174"/>
      <point x="467" y="1174" type="curve" smooth="yes"/>
      <point x="557" y="1174"/>
      <point x="635" y="1147"/>
      <point x="700" y="1094" type="curve" smooth="yes"/>
      <point x="773" y="1037"/>
      <point x="809" y="964"/>
    </contour>
    <contour>
      <point x="573" y="92" type="curve" smooth="yes"/>
      <point x="573" y="35"/>
      <point x="522" y="-14"/>
      <point x="465" y="-14" type="curve" smooth="yes"/>
      <point x="410" y="-14"/>
      <point x="358" y="37"/>
      <point x="358" y="92" type="curve" smooth="yes"/>
      <point x="358" y="147"/>
      <point x="410" y="199"/>
      <point x="465" y="199" type="curve" smooth="yes"/>
      <point x="522" y="199"/>
      <point x="573" y="149"/>
    </contour>
  </outline>
</glyph>
<glyph name="B" format="2">
  <advance width="850"/>
  <unicode hex="0042"/>
  <outline>
    <contour>
      <point x="778" y="383" type="curve" smooth="yes"/>
      <point x="778" y="238"/>
      <point x="687" y="166"/>
      <point x="506" y="166" type="curve" smooth="yes"/>
      <point x="229" y="166" type="line"/>
      <point x="229" y="926" type="line"/>
      <point x="485" y="926" type="line" smooth="yes"/>
      <point x="555" y="926"/>
      <point x="612" y="910"/>
      <point x="657" y="877" type="curve" smooth="yes"/>
      <point x="709" y="841"/>
      <point x="735" y="790"/>
      <point x="735" y="723" type="curve" smooth="yes"/>
      <point x="735" y="658"/>
      <point x="708" y="606"/>
      <point x="653" y="569" type="curve"/>
      <point x="736" y="523"/>
      <point x="778" y="461"/>
    </contour>
    <contour>
      <point x="631" y="715" type="curve" smooth="yes"/>
      <point x="631" y="749"/>
      <point x="612" y="775"/>
      <point x="575" y="793" type="curve" smooth="yes"/>
      <point x="546" y="805"/>
      <point x="513" y="811"/>
      <point x="475" y="811" type="curve" smooth="yes"/>
      <point x="342" y="811" type="line"/>
      <point x="342" y="614" type="line"/>
      <point x="477" y="614" type="line" smooth="yes"/>
      <point x="580" y="614"/>
      <point x="631" y="648"/>
    </contour>
    <contour>
      <point x="666" y="387" type="curve" smooth="yes"/>
      <point x="666" y="464"/>
      <point x="603" y="502"/>
      <point x="477" y="502" type="curve" smooth="yes"/>
      <point x="342" y="502" type="line"/>
      <point x="342" y="276" type="line"/>
      <point x="492" y="276" type="line" smooth="yes"/>
      <point x="608" y="276"/>
      <point x="666" y="313"/>
    </contour>
  </outline>
</glyph>
<glyph name="C" format="2">
  <advance width="897"/>
  <unicode hex="0043"/>
  <outline>
    <contour>
      <point x="831" y="381" type="line"/>
      <point x="811" y="313"/>
      <point x="777" y="259"/>
      <point x="729" y="219" type="curve" smooth="yes"/>
      <point x="680" y="176"/>
      <point x="621" y="154"/>
      <point x="553" y="154" type="curve" smooth="yes"/>
      <point x="343" y="154"/>
      <point x="238" y="285"/>
      <point x="238" y="547" type="curve" smooth="yes"/>
      <point x="238" y="655"/>
      <point x="262" y="744"/>
      <point x="311" y="815" type="curve" smooth="yes"/>
      <point x="367" y="896"/>
      <point x="447" y="936"/>
      <point x="551" y="936" type="curve" smooth="yes"/>
      <point x="674" y="936"/>
      <point x="790" y="854"/>
      <point x="825" y="737" type="curve"/>
      <point x="717" y="715" type="line"/>
      <point x="687" y="790"/>
      <point x="633" y="827"/>
      <point x="555" y="827" type="curve" smooth="yes"/>
      <point x="418" y="827"/>
      <point x="350" y="732"/>
      <point x="350" y="541" type="curve" smooth="yes"/>
      <point x="350" y="466"/>
      <point x="363" y="403"/>
      <point x="389" y="354" type="curve" smooth="yes"/>
      <point x="423" y="293"/>
      <point x="475" y="262"/>
      <point x="545" y="262" type="curve" smooth="yes"/>
      <point x="629" y="262"/>
      <point x="696" y="322"/>
      <point x="721" y="410" type="curve"/>
    </contour>
  </outline>
</glyph>
<glyph name="E" format="2">
  <advance width="850"/>
  <unicode hex="0045"/>
  <outline>
    <contour>
      <point x="766" y="166" type="line"/>
      <point x="250" y="166" type="line"/>
      <point x="250" y="926" type="line"/>
      <point x="752" y="926" type="line"/>
      <point x="752" y="811" type="line"/>
      <point x="362" y="811" type="line"/>
      <point x="362" y="608" type="line"/>
      <point x="694" y="608" type="line"/>
      <point x="694" y="496" type="line"/>
      <point x="362" y="496" type="line"/>
      <point x="362" y="279" type="line"/>
      <point x="766" y="279" type="line"/>
    </contour>
  </outline>
</glyph>
<glyph name="F" format="2">
  <advance width="799"/>
  <unicode hex="0046"/>
  <outline>
    <contour>
      <point x="717" y="813" type="line"/>
      <point x="348" y="813" type="line"/>
      <point x="348" y="600" type="line"/>
      <point x="678" y="600" type="line"/>
      <point x="678" y="487" type="line"/>
      <point x="348" y="487" type="line"/>
      <point x="348" y="166" type="line"/>
      <point x="236" y="166" type="line"/>
      <point x="236" y="926" type="line"/>
      <point x="717" y="926" type="line"/>
    </contour>
  </outline>
</glyph>
<glyph name="G" format="2">
  <advance width="971"/>
  <unicode hex="0047"/>
  <outline>
    <contour>
      <point x="893" y="270" type="line"/>
      <point x="794" y="190"/>
      <point x="693" y="150"/>
      <point x="590" y="150" type="curve" smooth="yes"/>
      <point x="481" y="150"/>
      <point x="395" y="189"/>
      <point x="334" y="266" type="curve" smooth="yes"/>
      <point x="277" y="337"/>
      <point x="248" y="430"/>
      <point x="248" y="543" type="curve" smooth="yes"/>
      <point x="248" y="656"/>
      <point x="274" y="747"/>
      <point x="326" y="815" type="curve" smooth="yes"/>
      <point x="385" y="892"/>
      <point x="469" y="930"/>
      <point x="578" y="930" type="curve" smooth="yes"/>
      <point x="731" y="930"/>
      <point x="834" y="869"/>
      <point x="887" y="748" type="curve"/>
      <point x="774" y="717" type="line"/>
      <point x="735" y="788"/>
      <point x="673" y="823"/>
      <point x="588" y="823" type="curve" smooth="yes"/>
      <point x="515" y="823"/>
      <point x="458" y="794"/>
      <point x="416" y="737" type="curve" smooth="yes"/>
      <point x="380" y="687"/>
      <point x="362" y="624"/>
      <point x="362" y="547" type="curve" smooth="yes"/>
      <point x="362" y="466"/>
      <point x="380" y="400"/>
      <point x="416" y="348" type="curve" smooth="yes"/>
      <point x="458" y="288"/>
      <point x="518" y="258"/>
      <point x="596" y="258" type="curve" smooth="yes"/>
      <point x="657" y="258"/>
      <point x="719" y="282"/>
      <point x="782" y="330" type="curve"/>
      <point x="782" y="446" type="line"/>
      <point x="578" y="446" type="line"/>
      <point x="578" y="559" type="line"/>
      <point x="893" y="559" type="line"/>
    </contour>
  </outline>
</glyph>
<glyph name="I" format="2">
  <advance width="410"/>
  <unicode hex="0049"/>
  <outline>
    <contour>
      <point x="297" y="166" type="line"/>
      <point x="186" y="166" type="line"/>
      <point x="186" y="926" type="line"/>
      <point x="297" y="926" type="line"/>
    </contour>
  </outline>
</glyph>
<glyph name="J" format="2">
  <advance width="768"/>
  <unicode hex="004A"/>
  <outline>
    <contour>
      <point x="668" y="406" type="line" smooth="yes"/>
      <point x="668" y="266"/>
      <point x="566" y="147"/>
      <point x="430" y="147" type="curve" smooth="yes"/>
      <point x="294" y="147"/>
      <point x="192" y="247"/>
      <point x="184" y="383" type="curve"/>
      <point x="184" y="416" type="line"/>
      <point x="297" y="416" type="line"/>
      <point x="296" y="409"/>
      <point x="295" y="398"/>
      <point x="295" y="383" type="curve" smooth="yes"/>
      <point x="295" y="312"/>
      <point x="353" y="256"/>
      <point x="424" y="256" type="curve" smooth="yes"/>
      <point x="500" y="256"/>
      <point x="557" y="335"/>
      <point x="557" y="412" type="curve" smooth="yes"/>
      <point x="557" y="922" type="line"/>
      <point x="668" y="922" type="line"/>
    </contour>
  </outline>
</glyph>
<glyph name="L" format="2">
  <advance width="776"/>
  <unicode hex="004C"/>
  <outline>
    <contour>
      <point x="694" y="166" type="line"/>
      <point x="229" y="166" type="line"/>
      <point x="229" y="926" type="line"/>
      <point x="340" y="926" type="line"/>
      <point x="340" y="279" type="line"/>
      <point x="694" y="279" type="line"/>
    </contour>
  </outline>
</glyph>
<glyph name="N" format="2">
  <advance width="895"/>
  <unicode hex="004E"/>
  <outline>
    <contour>
      <point x="795" y="166" type="line"/>
      <point x="698" y="166" type="line"/>
      <point x="356" y="709" type="line"/>
      <point x="356" y="166" type="line"/>
      <point x="246" y="166" type="line"/>
      <point x="246" y="926" type="line"/>
      <point x="354" y="926" type="line"/>
      <point x="682" y="401" type="line"/>
      <point x="682" y="926" type="line"/>
      <point x="795" y="926" type="line"/>
    </contour>
  </outline>
</glyph>
<glyph name="O" format="2">
  <advance width="956"/>
  <unicode hex="004F"/>
  <outline>
    <contour>
      <point x="893" y="537" type="curve" smooth="yes"/>
      <point x="893" y="436"/>
      <point x="865" y="347"/>
      <point x="809" y="272" type="curve" smooth="yes"/>
      <point x="748" y="189"/>
      <point x="668" y="147"/>
      <point x="571" y="147" type="curve" smooth="yes"/>
      <point x="474" y="147"/>
      <point x="395" y="188"/>
      <point x="334" y="270" type="curve" smooth="yes"/>
      <point x="277" y="345"/>
      <point x="248" y="433"/>
      <point x="248" y="532" type="curve" smooth="yes"/>
      <point x="248" y="637"/>
      <point x="275" y="728"/>
      <point x="330" y="805" type="curve" smooth="yes"/>
      <point x="391" y="890"/>
      <point x="472" y="932"/>
      <point x="573" y="932" type="curve" smooth="yes"/>
      <point x="670" y="932"/>
      <point x="749" y="889"/>
      <point x="809" y="803" type="curve" smooth="yes"/>
      <point x="865" y="726"/>
      <point x="893" y="638"/>
    </contour>
    <contour>
      <point x="778" y="545" type="curve" smooth="yes"/>
      <point x="778" y="613"/>
      <point x="762" y="674"/>
      <point x="729" y="729" type="curve" smooth="yes"/>
      <point x="690" y="790"/>
      <point x="638" y="821"/>
      <point x="573" y="821" type="curve" smooth="yes"/>
      <point x="506" y="821"/>
      <point x="453" y="791"/>
      <point x="414" y="731" type="curve" smooth="yes"/>
      <point x="379" y="678"/>
      <point x="362" y="616"/>
      <point x="362" y="547" type="curve" smooth="yes"/>
      <point x="362" y="473"/>
      <point x="379" y="409"/>
      <point x="412" y="356" type="curve" smooth="yes"/>
      <point x="450" y="292"/>
      <point x="503" y="260"/>
      <point x="571" y="260" type="curve" smooth="yes"/>
      <point x="638" y="260"/>
      <point x="691" y="292"/>
      <point x="729" y="356" type="curve" smooth="yes"/>
      <point x="762" y="409"/>
      <point x="778" y="472"/>
    </contour>
  </outline>
</glyph>
<glyph name="Q" format="2">
  <advance width="987"/>
  <unicode hex="0051"/>
  <outline>
    <contour>
      <point x="946" y="231" type="curve"/>
      <point x="934" y="212"/>
      <point x="915" y="182"/>
      <point x="889" y="139" type="curve"/>
      <point x="836" y="160"/>
      <point x="793" y="182"/>
      <point x="760" y="207" type="curve"/>
      <point x="707" y="166"/>
      <point x="648" y="145"/>
      <point x="584" y="145" type="curve" smooth="yes"/>
      <point x="484" y="145"/>
      <point x="404" y="187"/>
      <point x="344" y="272" type="curve" smooth="yes"/>
      <point x="289" y="347"/>
      <point x="262" y="436"/>
      <point x="262" y="539" type="curve" smooth="yes"/>
      <point x="262" y="640"/>
      <point x="289" y="728"/>
      <point x="342" y="805" type="curve" smooth="yes"/>
      <point x="402" y="890"/>
      <point x="481" y="932"/>
      <point x="578" y="932" type="curve" smooth="yes"/>
      <point x="677" y="932"/>
      <point x="758" y="890"/>
      <point x="821" y="807" type="curve" smooth="yes"/>
      <point x="878" y="732"/>
      <point x="907" y="642"/>
      <point x="907" y="539" type="curve" smooth="yes"/>
      <point x="907" y="443"/>
      <point x="882" y="358"/>
      <point x="831" y="283" type="curve"/>
      <point x="860" y="265"/>
      <point x="898" y="248"/>
    </contour>
    <contour>
      <point x="797" y="537" type="curve" smooth="yes"/>
      <point x="797" y="609"/>
      <point x="780" y="672"/>
      <point x="745" y="727" type="curve" smooth="yes"/>
      <point x="707" y="791"/>
      <point x="654" y="823"/>
      <point x="586" y="823" type="curve" smooth="yes"/>
      <point x="517" y="823"/>
      <point x="463" y="792"/>
      <point x="424" y="729" type="curve" smooth="yes"/>
      <point x="390" y="674"/>
      <point x="373" y="611"/>
      <point x="373" y="539" type="curve" smooth="yes"/>
      <point x="373" y="466"/>
      <point x="389" y="403"/>
      <point x="422" y="350" type="curve" smooth="yes"/>
      <point x="461" y="287"/>
      <point x="515" y="256"/>
      <point x="584" y="256" type="curve" smooth="yes"/>
      <point x="618" y="256"/>
      <point x="649" y="265"/>
      <point x="678" y="283" type="curve"/>
      <point x="661" y="300"/>
      <point x="633" y="330"/>
      <point x="594" y="371" type="curve"/>
      <point x="659" y="453" type="line"/>
      <point x="672" y="440"/>
      <point x="702" y="408"/>
      <point x="750" y="356" type="curve"/>
      <point x="781" y="408"/>
      <point x="797" y="468"/>
    </contour>
  </outline>
</glyph>
<glyph name="S" format="2">
  <advance width="879"/>
  <unicode hex="0053"/>
  <outline>
    <contour>
      <point x="807" y="381" type="curve" smooth="yes"/>
      <point x="807" y="302"/>
      <point x="777" y="242"/>
      <point x="717" y="201" type="curve" smooth="yes"/>
      <point x="665" y="165"/>
      <point x="597" y="147"/>
      <point x="512" y="147" type="curve" smooth="yes"/>
      <point x="430" y="147"/>
      <point x="362" y="166"/>
      <point x="309" y="205" type="curve" smooth="yes"/>
      <point x="250" y="248"/>
      <point x="218" y="309"/>
      <point x="211" y="387" type="curve"/>
      <point x="326" y="395" type="line"/>
      <point x="337" y="302"/>
      <point x="401" y="256"/>
      <point x="520" y="256" type="curve" smooth="yes"/>
      <point x="565" y="256"/>
      <point x="604" y="265"/>
      <point x="635" y="283" type="curve" smooth="yes"/>
      <point x="673" y="304"/>
      <point x="692" y="336"/>
      <point x="692" y="377" type="curve" smooth="yes"/>
      <point x="692" y="428"/>
      <point x="654" y="465"/>
      <point x="578" y="489" type="curve" smooth="yes"/>
      <point x="507" y="511"/>
      <point x="435" y="534"/>
      <point x="362" y="557" type="curve"/>
      <point x="286" y="594"/>
      <point x="248" y="654"/>
      <point x="248" y="737" type="curve" smooth="yes"/>
      <point x="248" y="803"/>
      <point x="277" y="854"/>
      <point x="336" y="891" type="curve" smooth="yes"/>
      <point x="385" y="921"/>
      <point x="445" y="936"/>
      <point x="514" y="936" type="curve" smooth="yes"/>
      <point x="670" y="936"/>
      <point x="763" y="867"/>
      <point x="793" y="729" type="curve"/>
      <point x="678" y="719" type="line"/>
      <point x="678" y="756"/>
      <point x="658" y="784"/>
      <point x="618" y="803" type="curve" smooth="yes"/>
      <point x="587" y="818"/>
      <point x="551" y="825"/>
      <point x="510" y="825" type="curve" smooth="yes"/>
      <point x="409" y="825"/>
      <point x="358" y="791"/>
      <point x="358" y="723" type="curve" smooth="yes"/>
      <point x="358" y="685"/>
      <point x="396" y="656"/>
      <point x="473" y="635" type="curve" smooth="yes"/>
      <point x="508" y="624"/>
      <point x="562" y="608"/>
      <point x="633" y="588" type="curve" smooth="yes"/>
      <point x="749" y="555"/>
      <point x="807" y="486"/>
    </contour>
  </outline>
</glyph>
<glyph name="T" format="2">
  <advance width="922"/>
  <unicode hex="0054"/>
  <outline>
    <contour>
      <point x="838" y="811" type="line"/>
      <point x="592" y="811" type="line"/>
      <point x="592" y="166" type="line"/>
      <point x="481" y="166" type="line"/>
      <point x="481" y="811" type="line"/>
      <point x="240" y="811" type="line"/>
      <point x="240" y="926" type="line"/>
      <point x="838" y="926" type="line"/>
    </contour>
  </outline>
</glyph>
<glyph name="U" format="2">
  <advance width="915"/>
  <unicode hex="0055"/>
  <outline>
    <contour>
      <point x="836" y="467" type="line" smooth="yes"/>
      <point x="836" y="295"/>
      <point x="714" y="145"/>
      <point x="545" y="145" type="curve" smooth="yes"/>
      <point x="370" y="145"/>
      <point x="250" y="290"/>
      <point x="250" y="467" type="curve" smooth="yes"/>
      <point x="250" y="924" type="line"/>
      <point x="360" y="924" type="line"/>
      <point x="360" y="465" type="line" smooth="yes"/>
      <point x="360" y="361"/>
      <point x="440" y="256"/>
      <point x="541" y="256" type="curve" smooth="yes"/>
      <point x="644" y="256"/>
      <point x="725" y="363"/>
      <point x="725" y="467" type="curve" smooth="yes"/>
      <point x="725" y="924" type="line"/>
      <point x="836" y="924" type="line"/>
    </contour>
  </outline>
</glyph>
<glyph name="V" format="2">
  <advance width="1020"/>
  <unicode hex="0056"/>
  <outline>
    <contour>
      <point x="948" y="926" type="line"/>
      <point x="651" y="166" type="line"/>
      <point x="541" y="166" type="line"/>
      <point x="252" y="926" type="line"/>
      <point x="375" y="926" type="line"/>
      <point x="598" y="340" type="line"/>
      <point x="825" y="926" type="line"/>
    </contour>
  </outline>
</glyph>
<glyph name="W" format="2">
  <advance width="1237"/>
  <unicode hex="0057"/>
  <outline>
    <contour>
      <point x="1163" y="924" type="line"/>
      <point x="1001" y="166" type="line"/>
      <point x="866" y="166" type="line"/>
      <point x="729" y="651" type="line"/>
      <point x="588" y="166" type="line"/>
      <point x="457" y="166" type="line"/>
      <point x="289" y="924" type="line"/>
      <point x="403" y="924" type="line"/>
      <point x="526" y="367" type="line"/>
      <point x="662" y="801" type="line" smooth="yes"/>
      <point x="678" y="850"/>
      <point x="700" y="874"/>
      <point x="729" y="874" type="curve" smooth="yes"/>
      <point x="758" y="874"/>
      <point x="780" y="850"/>
      <point x="795" y="801" type="curve" smooth="yes"/>
      <point x="930" y="371" type="line"/>
      <point x="1044" y="924" type="line"/>
    </contour>
  </outline>
</glyph>
<glyph name="X" format="2">
  <advance width="946"/>
  <unicode hex="0058"/>
  <outline>
    <contour>
      <point x="881" y="166" type="line"/>
      <point x="743" y="166" type="line"/>
      <point x="701" y="231"/>
      <point x="638" y="332"/>
      <point x="553" y="467" type="curve"/>
      <point x="494" y="374"/>
      <point x="428" y="274"/>
      <point x="354" y="166" type="curve"/>
      <point x="215" y="166" type="line"/>
      <point x="479" y="557" type="line"/>
      <point x="246" y="926" type="line"/>
      <point x="381" y="926" type="line"/>
      <point x="555" y="643" type="line"/>
      <point x="566" y="662"/>
      <point x="626" y="757"/>
      <point x="737" y="926" type="curve"/>
      <point x="872" y="926" type="line"/>
      <point x="629" y="557" type="line"/>
    </contour>
  </outline>
</glyph>
<glyph name="Z" format="2">
  <advance width="899"/>
  <unicode hex="005A"/>
  <outline>
    <contour>
      <point x="817" y="166" type="line"/>
      <point x="246" y="166" type="line"/>
      <point x="248" y="276" type="line"/>
      <point x="662" y="813" type="line"/>
      <point x="274" y="813" type="line"/>
      <point x="274" y="926" type="line"/>
      <point x="809" y="926" type="line"/>
      <point x="809" y="821" type="line"/>
      <point x="670" y="641"/>
      <point x="530" y="460"/>
      <point x="391" y="279" type="curve"/>
      <point x="817" y="279" type="line"/>
    </contour>
  </outline>
</glyph>
<glyph name="bracketleft" format="2">
  <advance width="735"/>
  <unicode hex="005B"/>
  <outline>
    <contour>
      <point x="647" y="-299" type="line"/>
      <point x="352" y="-299" type="line"/>
      <point x="352" y="1329" type="line"/>
      <point x="647" y="1329" type="line"/>
      <point x="647" y="1188" type="line"/>
      <point x="504" y="1188" type="line"/>
      <point x="504" y="-160" type="line"/>
      <point x="647" y="-160" type="line"/>
    </contour>
  </outline>
</glyph>
<glyph name="asciicircum" format="2">
  <advance width="825"/>
  <unicode hex="005E"/>
  <outline>
    <contour>
      <point x="784" y="696" type="line"/>
      <point x="635" y="696" type="line"/>
      <point x="438" y="1090" type="line"/>
      <point x="248" y="696" type="line"/>
      <point x="94" y="696" type="line"/>
      <point x="383" y="1288" type="line"/>
      <point x="496" y="1288" type="line"/>
    </contour>
  </outline>
</glyph>
<glyph name="underscore" format="2">
  <advance width="856"/>
  <unicode hex="005F"/>
  <outline>
    <contour>
      <point x="868" y="-356" type="line"/>
      <point x="-12" y="-356" type="line"/>
      <point x="-12" y="-260" type="line"/>
      <point x="868" y="-260" type="line"/>
    </contour>
  </outline>
</glyph>
<glyph name="b" format="2">
  <advance width="801"/>
  <unicode hex="0062"/>
  <outline>
    <contour>
      <point x="739" y="406" type="curve" smooth="yes"/>
      <point x="739" y="283"/>
      <point x="661" y="221"/>
      <point x="506" y="221" type="curve" smooth="yes"/>
      <point x="268" y="221" type="line"/>
      <point x="268" y="870" type="line"/>
      <point x="487" y="870" type="line" smooth="yes"/>
      <point x="548" y="870"/>
      <point x="597" y="856"/>
      <point x="635" y="829" type="curve" smooth="yes"/>
      <point x="680" y="798"/>
      <point x="702" y="754"/>
      <point x="702" y="698" type="curve" smooth="yes"/>
      <point x="702" y="641"/>
      <point x="679" y="596"/>
      <point x="633" y="565" type="curve"/>
      <point x="704" y="527"/>
      <point x="739" y="474"/>
    </contour>
    <contour>
      <point x="612" y="692" type="curve" smooth="yes"/>
      <point x="612" y="747"/>
      <point x="568" y="774"/>
      <point x="479" y="774" type="curve" smooth="yes"/>
      <point x="365" y="774" type="line"/>
      <point x="365" y="604" type="line"/>
      <point x="481" y="604" type="line" smooth="yes"/>
      <point x="568" y="604"/>
      <point x="612" y="633"/>
    </contour>
    <contour>
      <point x="643" y="410" type="curve" smooth="yes"/>
      <point x="643" y="475"/>
      <point x="589" y="508"/>
      <point x="481" y="508" type="curve" smooth="yes"/>
      <point x="365" y="508" type="line"/>
      <point x="365" y="315" type="line"/>
      <point x="494" y="315" type="line" smooth="yes"/>
      <point x="593" y="315"/>
      <point x="643" y="347"/>
    </contour>
  </outline>
</glyph>
<glyph name="c" format="2">
  <advance width="846"/>
  <unicode hex="0063"/>
  <outline>
    <contour>
      <point x="788" y="403" type="line"/>
      <point x="749" y="274"/>
      <point x="670" y="209"/>
      <point x="551" y="209" type="curve" smooth="yes"/>
      <point x="371" y="209"/>
      <point x="281" y="322"/>
      <point x="281" y="547" type="curve" smooth="yes"/>
      <point x="281" y="640"/>
      <point x="302" y="716"/>
      <point x="344" y="776" type="curve" smooth="yes"/>
      <point x="392" y="846"/>
      <point x="460" y="881"/>
      <point x="549" y="881" type="curve" smooth="yes"/>
      <point x="653" y="881"/>
      <point x="752" y="808"/>
      <point x="784" y="711" type="curve"/>
      <point x="690" y="690" type="line"/>
      <point x="665" y="754"/>
      <point x="620" y="786"/>
      <point x="553" y="786" type="curve" smooth="yes"/>
      <point x="436" y="786"/>
      <point x="377" y="704"/>
      <point x="377" y="541" type="curve" smooth="yes"/>
      <point x="377" y="382"/>
      <point x="432" y="303"/>
      <point x="543" y="303" type="curve" smooth="yes"/>
      <point x="620" y="303"/>
      <point x="671" y="345"/>
      <point x="694" y="428" type="curve"/>
    </contour>
  </outline>
</glyph>
<glyph name="e" format="2">
  <advance width="801"/>
  <unicode hex="0065"/>
  <outline>
    <contour>
      <point x="729" y="221" type="line"/>
      <point x="287" y="221" type="line"/>
      <point x="287" y="870" type="line"/>
      <point x="717" y="870" type="line"/>
      <point x="717" y="774" type="line"/>
      <point x="383" y="774" type="line"/>
      <point x="383" y="600" type="line"/>
      <point x="668" y="600" type="line"/>
      <point x="668" y="504" type="line"/>
      <point x="383" y="504" type="line"/>
      <point x="383" y="317" type="line"/>
      <point x="729" y="317" type="line"/>
    </contour>
  </outline>
</glyph>
<glyph name="j" format="2">
  <advance width="719"/>
  <unicode hex="006A"/>
  <outline>
    <contour>
      <point x="633" y="424" type="line" smooth="yes"/>
      <point x="633" y="304"/>
      <point x="545" y="203"/>
      <point x="428" y="203" type="curve" smooth="yes"/>
      <point x="311" y="203"/>
      <point x="224" y="288"/>
      <point x="219" y="403" type="curve" smooth="yes"/>
      <point x="219" y="432" type="line"/>
      <point x="315" y="432" type="line"/>
      <point x="314" y="427"/>
      <point x="313" y="418"/>
      <point x="313" y="406" type="curve" smooth="yes"/>
      <point x="313" y="342"/>
      <point x="364" y="297"/>
      <point x="424" y="297" type="curve" smooth="yes"/>
      <point x="489" y="297"/>
      <point x="539" y="365"/>
      <point x="539" y="430" type="curve" smooth="yes"/>
      <point x="539" y="866" type="line"/>
      <point x="633" y="866" type="line"/>
    </contour>
  </outline>
</glyph>
<glyph name="l" format="2">
  <advance width="731"/>
  <unicode hex="006C"/>
  <outline>
    <contour>
      <point x="662" y="221" type="line"/>
      <point x="262" y="221" type="line"/>
      <point x="262" y="870" type="line"/>
      <point x="358" y="870" type="line"/>
      <point x="358" y="317" type="line"/>
      <point x="662" y="317" type="line"/>
    </contour>
  </outline>
</glyph>
<glyph name="m" format="2">
  <advance width="961"/>
  <unicode hex="006D"/>
  <outline>
    <contour>
      <point x="877" y="221" type="line"/>
      <point x="778" y="221" type="line"/>
      <point x="778" y="698" type="line"/>
      <point x="751" y="652"/>
      <point x="708" y="585"/>
      <point x="649" y="496" type="curve" smooth="yes"/>
      <point x="638" y="479"/>
      <point x="622" y="471"/>
      <point x="600" y="471" type="curve" smooth="yes"/>
      <point x="577" y="471"/>
      <point x="559" y="479"/>
      <point x="546" y="494" type="curve" smooth="yes"/>
      <point x="534" y="510"/>
      <point x="489" y="576"/>
      <point x="410" y="692" type="curve"/>
      <point x="410" y="221" type="line"/>
      <point x="313" y="221" type="line"/>
      <point x="313" y="870" type="line"/>
      <point x="401" y="870" type="line"/>
      <point x="594" y="586" type="line"/>
      <point x="683" y="710"/>
      <point x="747" y="805"/>
      <point x="788" y="870" type="curve"/>
      <point x="877" y="870" type="line"/>
    </contour>
  </outline>
</glyph>
<glyph name="p" format="2">
  <advance width="803"/>
  <unicode hex="0070"/>
  <outline>
    <contour>
      <point x="739" y="678" type="curve" smooth="yes"/>
      <point x="739" y="550"/>
      <point x="635" y="477"/>
      <point x="504" y="477" type="curve" smooth="yes"/>
      <point x="381" y="477" type="line"/>
      <point x="381" y="219" type="line"/>
      <point x="285" y="219" type="line"/>
      <point x="283" y="868" type="line"/>
      <point x="479" y="868" type="line" smooth="yes"/>
      <point x="546" y="868"/>
      <point x="604" y="854"/>
      <point x="653" y="825" type="curve" smooth="yes"/>
      <point x="710" y="791"/>
      <point x="739" y="742"/>
    </contour>
    <contour>
      <point x="645" y="674" type="curve" smooth="yes"/>
      <point x="645" y="739"/>
      <point x="600" y="772"/>
      <point x="510" y="772" type="curve" smooth="yes"/>
      <point x="381" y="772" type="line"/>
      <point x="381" y="573" type="line"/>
      <point x="500" y="573" type="line" smooth="yes"/>
      <point x="537" y="573"/>
      <point x="569" y="580"/>
      <point x="596" y="594" type="curve" smooth="yes"/>
      <point x="629" y="613"/>
      <point x="645" y="640"/>
    </contour>
  </outline>
</glyph>
<glyph name="s" format="2">
  <advance width="825"/>
  <unicode hex="0073"/>
  <outline>
    <contour>
      <point x="764" y="406" type="curve" smooth="yes"/>
      <point x="764" y="336"/>
      <point x="738" y="283"/>
      <point x="686" y="248" type="curve" smooth="yes"/>
      <point x="643" y="218"/>
      <point x="585" y="203"/>
      <point x="512" y="203" type="curve" smooth="yes"/>
      <point x="443" y="203"/>
      <point x="385" y="220"/>
      <point x="338" y="254" type="curve" smooth="yes"/>
      <point x="287" y="291"/>
      <point x="259" y="343"/>
      <point x="254" y="410" type="curve"/>
      <point x="350" y="416" type="line"/>
      <point x="361" y="337"/>
      <point x="417" y="297"/>
      <point x="518" y="297" type="curve" smooth="yes"/>
      <point x="618" y="297"/>
      <point x="668" y="332"/>
      <point x="668" y="401" type="curve" smooth="yes"/>
      <point x="668" y="444"/>
      <point x="634" y="476"/>
      <point x="567" y="498" type="curve" smooth="yes"/>
      <point x="506" y="517"/>
      <point x="444" y="536"/>
      <point x="383" y="555" type="curve"/>
      <point x="318" y="586"/>
      <point x="285" y="638"/>
      <point x="285" y="709" type="curve" smooth="yes"/>
      <point x="285" y="765"/>
      <point x="310" y="809"/>
      <point x="360" y="840" type="curve" smooth="yes"/>
      <point x="403" y="867"/>
      <point x="454" y="881"/>
      <point x="514" y="881" type="curve" smooth="yes"/>
      <point x="647" y="881"/>
      <point x="726" y="821"/>
      <point x="752" y="702" type="curve"/>
      <point x="655" y="694" type="line"/>
      <point x="655" y="725"/>
      <point x="638" y="749"/>
      <point x="604" y="766" type="curve" smooth="yes"/>
      <point x="577" y="779"/>
      <point x="545" y="786"/>
      <point x="510" y="786" type="curve" smooth="yes"/>
      <point x="423" y="786"/>
      <point x="379" y="756"/>
      <point x="379" y="696" type="curve" smooth="yes"/>
      <point x="379" y="663"/>
      <point x="412" y="639"/>
      <point x="479" y="623" type="curve"/>
      <point x="509" y="613"/>
      <point x="554" y="599"/>
      <point x="614" y="582" type="curve" smooth="yes"/>
      <point x="714" y="555"/>
      <point x="764" y="496"/>
    </contour>
  </outline>
</glyph>
<glyph name="t" format="2">
  <advance width="866"/>
  <unicode hex="0074"/>
  <outline>
    <contour>
      <point x="795" y="774" type="line"/>
      <point x="584" y="774" type="line"/>
      <point x="584" y="221" type="line"/>
      <point x="489" y="221" type="line"/>
      <point x="489" y="774" type="line"/>
      <point x="283" y="774" type="line"/>
      <point x="283" y="870" type="line"/>
      <point x="795" y="870" type="line"/>
    </contour>
  </outline>
</glyph>
<glyph name="w" format="2">
  <advance width="1163"/>
  <unicode hex="0077"/>
  <outline>
    <contour>
      <point x="1102" y="868" type="line"/>
      <point x="961" y="221" type="line"/>
      <point x="848" y="221" type="line"/>
      <point x="729" y="637" type="line"/>
      <point x="608" y="221" type="line"/>
      <point x="494" y="221" type="line"/>
      <point x="350" y="868" type="line"/>
      <point x="451" y="868" type="line"/>
      <point x="555" y="393" type="line"/>
      <point x="672" y="764" type="line" smooth="yes"/>
      <point x="684" y="806"/>
      <point x="703" y="827"/>
      <point x="729" y="827" type="curve" smooth="yes"/>
      <point x="754" y="827"/>
      <point x="773" y="806"/>
      <point x="786" y="764" type="curve" smooth="yes"/>
      <point x="899" y="395" type="line"/>
      <point x="997" y="868" type="line"/>
    </contour>
  </outline>
</glyph>
<glyph name="braceleft" format="2">
  <advance width="905"/>
  <unicode hex="007B"/>
  <outline>
    <contour>
      <point x="647" y="1499" type="curve"/>
      <point x="531" y="1438"/>
      <point x="473" y="1366"/>
      <point x="473" y="1284" type="curve" smooth="yes"/>
      <point x="473" y="1250"/>
      <point x="480" y="1200"/>
      <point x="496" y="1134" type="curve" smooth="yes"/>
      <point x="510" y="1067"/>
      <point x="518" y="1017"/>
      <point x="518" y="983" type="curve" smooth="yes"/>
      <point x="518" y="828"/>
      <point x="434" y="720"/>
      <point x="266" y="659" type="curve"/>
      <point x="434" y="602"/>
      <point x="518" y="493"/>
      <point x="518" y="334" type="curve" smooth="yes"/>
      <point x="518" y="300"/>
      <point x="510" y="250"/>
      <point x="496" y="184" type="curve" smooth="yes"/>
      <point x="480" y="117"/>
      <point x="473" y="67"/>
      <point x="473" y="33" type="curve" smooth="yes"/>
      <point x="473" y="-46"/>
      <point x="530" y="-118"/>
      <point x="645" y="-182" type="curve"/>
      <point x="566" y="-157"/>
      <point x="501" y="-118"/>
      <point x="451" y="-63" type="curve" smooth="yes"/>
      <point x="395" y="-3"/>
      <point x="367" y="66"/>
      <point x="367" y="143" type="curve" smooth="yes"/>
      <point x="367" y="178"/>
      <point x="374" y="227"/>
      <point x="390" y="292" type="curve" smooth="yes"/>
      <point x="404" y="357"/>
      <point x="412" y="406"/>
      <point x="412" y="440" type="curve" smooth="yes"/>
      <point x="412" y="547"/>
      <point x="336" y="618"/>
      <point x="184" y="655" type="curve"/>
      <point x="184" y="664" type="line"/>
      <point x="336" y="710"/>
      <point x="412" y="781"/>
      <point x="412" y="877" type="curve" smooth="yes"/>
      <point x="412" y="911"/>
      <point x="404" y="960"/>
      <point x="390" y="1025" type="curve" smooth="yes"/>
      <point x="374" y="1090"/>
      <point x="367" y="1139"/>
      <point x="367" y="1174" type="curve" smooth="yes"/>
      <point x="367" y="1251"/>
      <point x="395" y="1321"/>
      <point x="451" y="1382" type="curve" smooth="yes"/>
      <point x="502" y="1437"/>
      <point x="568" y="1476"/>
    </contour>
  </outline>
</glyph>
<glyph name="bar" format="2">
  <advance width="512"/>
  <unicode hex="007C"/>
  <outline>
    <contour>
      <point x="330" y="-301" type="line"/>
      <point x="197" y="-301" type="line"/>
      <point x="197" y="1362" type="line"/>
      <point x="330" y="1362" type="line"/>
    </contour>
  </outline>
</glyph>
<glyph name="section" format="2">
  <advance width="1280"/>
  <unicode hex="00A7"/>
  <outline>
    <contour>
      <point x="1014" y="762" type="curve" smooth="yes"/>
      <point x="1014" y="663"/>
      <point x="956" y="576"/>
      <point x="840" y="500" type="curve"/>
      <point x="900" y="435"/>
      <point x="930" y="372"/>
      <point x="930" y="311" type="curve" smooth="yes"/>
      <point x="930" y="167"/>
      <point x="786" y="51"/>
      <point x="635" y="51" type="curve" smooth="yes"/>
      <point x="422" y="51"/>
      <point x="314" y="151"/>
      <point x="311" y="352" type="curve"/>
      <point x="449" y="352" type="line"/>
      <point x="450" y="229"/>
      <point x="505" y="168"/>
      <point x="612" y="168" type="curve" smooth="yes"/>
      <point x="659" y="168"/>
      <point x="699" y="180"/>
      <point x="733" y="203" type="curve" smooth="yes"/>
      <point x="773" y="229"/>
      <point x="793" y="264"/>
      <point x="793" y="307" type="curve" smooth="yes"/>
      <point x="793" y="358"/>
      <point x="738" y="421"/>
      <point x="627" y="498" type="curve"/>
      <point x="546" y="547"/>
      <point x="466" y="595"/>
      <point x="387" y="643" type="curve"/>
      <point x="293" y="714"/>
      <point x="246" y="791"/>
      <point x="246" y="872" type="curve" smooth="yes"/>
      <point x="246" y="976"/>
      <point x="302" y="1062"/>
      <point x="414" y="1130" type="curve"/>
      <point x="361" y="1188"/>
      <point x="334" y="1243"/>
      <point x="334" y="1296" type="curve" smooth="yes"/>
      <point x="334" y="1457"/>
      <point x="466" y="1571"/>
      <point x="627" y="1571" type="curve" smooth="yes"/>
      <point x="804" y="1571"/>
      <point x="923" y="1455"/>
      <point x="928" y="1278" type="curve"/>
      <point x="797" y="1278" type="line"/>
      <point x="794" y="1394"/>
      <point x="738" y="1452"/>
      <point x="627" y="1452" type="curve" smooth="yes"/>
      <point x="544" y="1452"/>
      <point x="471" y="1396"/>
      <point x="471" y="1317" type="curve" smooth="yes"/>
      <point x="471" y="1261"/>
      <point x="518" y="1205"/>
      <point x="612" y="1149" type="curve" smooth="yes"/>
      <point x="872" y="995" type="line"/>
      <point x="967" y="926"/>
      <point x="1014" y="848"/>
    </contour>
    <contour>
      <point x="887" y="731" type="curve" smooth="yes"/>
      <point x="887" y="798"/>
      <point x="851" y="853"/>
      <point x="778" y="897" type="curve" smooth="yes"/>
      <point x="487" y="1073" type="line"/>
      <point x="411" y="1031"/>
      <point x="373" y="975"/>
      <point x="373" y="905" type="curve" smooth="yes"/>
      <point x="373" y="842"/>
      <point x="399" y="795"/>
      <point x="451" y="762" type="curve" smooth="yes"/>
      <point x="764" y="561" type="line"/>
      <point x="846" y="605"/>
      <point x="887" y="662"/>
    </contour>
  </outline>
</glyph>
<glyph name="logicalnot" format="2">
  <advance width="1282"/>
  <unicode hex="00AC"/>
  <outline>
    <contour>
      <point x="963" y="201" type="line"/>
      <point x="840" y="201" type="line"/>
      <point x="840" y="668" type="line"/>
      <point x="211" y="668" type="line"/>
      <point x="211" y="782" type="line"/>
      <point x="963" y="782" type="line"/>
    </contour>
  </outline>
</glyph>
<glyph name="degree" format="2">
  <advance width="766"/>
  <unicode hex="00B0"/>
  <outline>
    <contour>
      <point x="541" y="1382" type="curve" smooth="yes"/>
      <point x="541" y="1251"/>
      <point x="443" y="1153"/>
      <point x="311" y="1153" type="curve" smooth="yes"/>
      <point x="186" y="1153"/>
      <point x="82" y="1257"/>
      <point x="82" y="1382" type="curve" smooth="yes"/>
      <point x="82" y="1509"/>
      <point x="186" y="1612"/>
      <point x="311" y="1612" type="curve" smooth="yes"/>
      <point x="438" y="1612"/>
      <point x="541" y="1509"/>
    </contour>
    <contour>
      <point x="502" y="1382" type="curve" smooth="yes"/>
      <point x="502" y="1491"/>
      <point x="420" y="1573"/>
      <point x="311" y="1573" type="curve" smooth="yes"/>
      <point x="204" y="1573"/>
      <point x="121" y="1489"/>
      <point x="121" y="1382" type="curve" smooth="yes"/>
      <point x="121" y="1277"/>
      <point x="204" y="1192"/>
      <point x="311" y="1192" type="curve" smooth="yes"/>
      <point x="415" y="1192"/>
      <point x="502" y="1279"/>
    </contour>
  </outline>
</glyph>
<glyph name="paragraph" format="2">
  <advance width="1280"/>
  <unicode hex="00B6"/>
  <outline>
    <contour>
      <point x="981" y="8" type="line"/>
      <point x="870" y="8" type="line"/>
      <point x="870" y="1432" type="line"/>
      <point x="664" y="1432" type="line"/>
      <point x="664" y="8" type="line"/>
      <point x="553" y="8" type="line"/>
      <point x="553" y="913" type="line"/>
      <point x="456" y="916"/>
      <point x="375" y="942"/>
      <point x="309" y="991" type="curve" smooth="yes"/>
      <point x="234" y="1046"/>
      <point x="197" y="1119"/>
      <point x="197" y="1212" type="curve" smooth="yes"/>
      <point x="197" y="1319"/>
      <point x="234" y="1399"/>
      <point x="309" y="1452" type="curve" smooth="yes"/>
      <point x="375" y="1499"/>
      <point x="463" y="1522"/>
      <point x="573" y="1522" type="curve" smooth="yes"/>
      <point x="981" y="1522" type="line"/>
    </contour>
  </outline>
</glyph>
<glyph name="emdash" format="2">
  <advance width="1280"/>
  <unicode hex="2014"/>
  <outline>
    <contour>
      <point x="1280" y="567" type="line"/>
      <point x="0" y="567" type="line"/>
      <point x="0" y="666" type="line"/>
      <point x="1280" y="666" type="line"/>
    </contour>
  </outline>
</glyph>
<glyph name="quoteright" format="2">
  <advance width="602"/>
  <unicode hex="2019"/>
  <outline>
    <contour>
      <point x="477" y="1067" type="curve" smooth="yes"/>
      <point x="477" y="884"/>
      <point x="353" y="714"/>
      <point x="178" y="651" type="curve"/>
      <point x="178" y="719" type="line"/>
      <point x="293" y="770"/>
      <point x="358" y="849"/>
      <point x="373" y="958" type="curve"/>
      <point x="317" y="993" type="line"/>
      <point x="249" y="998"/>
      <point x="201" y="1061"/>
      <point x="201" y="1133" type="curve" smooth="yes"/>
      <point x="201" y="1209"/>
      <point x="251" y="1290"/>
      <point x="326" y="1290" type="curve" smooth="yes"/>
      <point x="376" y="1290"/>
      <point x="415" y="1264"/>
      <point x="442" y="1212" type="curve" smooth="yes"/>
      <point x="465" y="1170"/>
      <point x="477" y="1122"/>
    </contour>
  </outline>
</glyph>
<glyph name="quotedblright" format="2">
  <advance width="1051"/>
  <unicode hex="201D"/>
  <outline>
    <contour>
      <point x="887" y="1047" type="curve" smooth="yes"/>
      <point x="887" y="863"/>
      <point x="763" y="694"/>
      <point x="588" y="631" type="curve"/>
      <point x="588" y="698" type="line"/>
      <point x="703" y="749"/>
      <point x="767" y="829"/>
      <point x="782" y="938" type="curve"/>
      <point x="727" y="973" type="line"/>
      <point x="659" y="978"/>
      <point x="610" y="1041"/>
      <point x="610" y="1112" type="curve" smooth="yes"/>
      <point x="610" y="1188"/>
      <point x="662" y="1270"/>
      <point x="735" y="1270" type="curve" smooth="yes"/>
      <point x="786" y="1270"/>
      <point x="825" y="1244"/>
      <point x="852" y="1192" type="curve" smooth="yes"/>
      <point x="875" y="1149"/>
      <point x="887" y="1101"/>
    </contour>
    <contour>
      <point x="428" y="1042" type="curve" smooth="yes"/>
      <point x="428" y="859"/>
      <point x="303" y="686"/>
      <point x="131" y="623" type="curve"/>
      <point x="131" y="696" type="line"/>
      <point x="244" y="741"/>
      <point x="309" y="820"/>
      <point x="324" y="932" type="curve"/>
      <point x="268" y="965" type="line"/>
      <point x="200" y="970"/>
      <point x="154" y="1035"/>
      <point x="154" y="1106" type="curve" smooth="yes"/>
      <point x="154" y="1182"/>
      <point x="204" y="1264"/>
      <point x="279" y="1264" type="curve" smooth="yes"/>
      <point x="329" y="1264"/>
      <point x="368" y="1238"/>
      <point x="395" y="1186" type="curve" smooth="yes"/>
      <point x="417" y="1145"/>
      <point x="428" y="1097"/>
    </contour>
  </outline>
</glyph>
<glyph name="H18543" format="2">
  <advance width="1147"/>
  <unicode hex="25AA"/>
  <outline>
    <contour>
      <point x="838" y="285" type="line"/>
      <point x="344" y="285" type="line"/>
      <point x="344" y="778" type="line"/>
      <point x="838" y="778" type="line"/>
    </contour>
  </outline>
</glyph>
<glyph name="blackstar" format="2">
  <advance width="1626"/>
  <unicode hex="2605"/>
  <outline>
    <contour>
      <point x="1354" y="797" type="line"/>
      <point x="1022" y="555" type="line"/>
      <point x="1149" y="166" type="line"/>
      <point x="815" y="406" type="line"/>
      <point x="483" y="166" type="line"/>
      <point x="610" y="555" type="line"/>
      <point x="279" y="797" type="line"/>
      <point x="690" y="797" type="line"/>
      <point x="815" y="1188" type="line"/>
      <point x="944" y="797" type="line"/>
    </contour>
  </outline>
</glyph>
<glyph name="dblanglebracketright" format="2">
  <advance width="1100"/>
  <unicode hex="300B"/>
  <outline>
    <contour>
      <point x="158" y="-15" type="curve"/>
      <point x="274" y="214"/>
      <point x="389" y="444"/>
      <point x="505" y="674" type="curve"/>
      <point x="158" y="1365" type="line"/>
      <point x="136" y="1354"/>
      <point x="113" y="1343"/>
      <point x="90" y="1333" type="curve"/>
      <point x="420" y="674" type="line"/>
      <point x="90" y="16" type="line"/>
      <point x="113" y="5"/>
      <point x="136" y="-4"/>
    </contour>
    <contour>
      <point x="454" y="-15" type="curve"/>
      <point x="800" y="674" type="line"/>
      <point x="454" y="1365" type="line"/>
      <point x="431" y="1354"/>
      <point x="408" y="1343"/>
      <point x="385" y="1333" type="curve"/>
      <point x="715" y="674" type="line"/>
      <point x="385" y="16" type="line"/>
      <point x="408" y="5"/>
      <point x="431" y="-4"/>
    </contour>
  </outline>
</glyph>
<glyph name="uniA4D0" format="2">
  <advance width="999"/>
  <unicode hex="A4D0"/>
  <outline>
    <contour>
      <point x="895" y="313" type="curve" smooth="yes"/>
      <point x="895" y="196"/>
      <point x="857" y="112"/>
      <point x="782" y="63" type="curve" smooth="yes"/>
      <point x="721" y="24"/>
      <point x="629" y="4"/>
      <point x="506" y="4" type="curve" smooth="yes"/>
      <point x="113" y="4" type="line"/>
      <point x="113" y="1087" type="line"/>
      <point x="477" y="1087" type="line" smooth="yes"/>
      <point x="577" y="1087"/>
      <point x="659" y="1065"/>
      <point x="723" y="1020" type="curve" smooth="yes"/>
      <point x="797" y="968"/>
      <point x="834" y="894"/>
      <point x="834" y="799" type="curve" smooth="yes"/>
      <point x="834" y="704"/>
      <point x="796" y="631"/>
      <point x="719" y="580" type="curve"/>
      <point x="836" y="514"/>
      <point x="895" y="425"/>
    </contour>
    <contour>
      <point x="684" y="788" type="curve" smooth="yes"/>
      <point x="684" y="836"/>
      <point x="657" y="872"/>
      <point x="604" y="897" type="curve" smooth="yes"/>
      <point x="563" y="916"/>
      <point x="516" y="926"/>
      <point x="463" y="926" type="curve" smooth="yes"/>
      <point x="272" y="926" type="line"/>
      <point x="272" y="643" type="line"/>
      <point x="465" y="643" type="line" smooth="yes"/>
      <point x="611" y="643"/>
      <point x="684" y="691"/>
    </contour>
    <contour>
      <point x="735" y="319" type="curve" smooth="yes"/>
      <point x="735" y="428"/>
      <point x="645" y="483"/>
      <point x="465" y="483" type="curve" smooth="yes"/>
      <point x="272" y="483" type="line"/>
      <point x="272" y="162" type="line"/>
      <point x="485" y="162" type="line" smooth="yes"/>
      <point x="652" y="162"/>
      <point x="735" y="214"/>
    </contour>
  </outline>
</glyph>
<glyph name="uniA4D1" format="2">
  <advance width="997"/>
  <unicode hex="A4D1"/>
  <outline>
    <contour>
      <point x="891" y="768" type="curve" smooth="yes"/>
      <point x="891" y="661"/>
      <point x="851" y="577"/>
      <point x="772" y="516" type="curve" smooth="yes"/>
      <point x="700" y="460"/>
      <point x="609" y="432"/>
      <point x="500" y="432" type="curve" smooth="yes"/>
      <point x="293" y="432" type="line"/>
      <point x="293" y="4" type="line"/>
      <point x="133" y="4" type="line"/>
      <point x="131" y="1083" type="line"/>
      <point x="457" y="1083" type="line" smooth="yes"/>
      <point x="570" y="1083"/>
      <point x="667" y="1059"/>
      <point x="748" y="1012" type="curve" smooth="yes"/>
      <point x="843" y="956"/>
      <point x="891" y="875"/>
    </contour>
    <contour>
      <point x="733" y="760" type="curve" smooth="yes"/>
      <point x="733" y="816"/>
      <point x="708" y="858"/>
      <point x="659" y="887" type="curve" smooth="yes"/>
      <point x="618" y="912"/>
      <point x="568" y="924"/>
      <point x="508" y="924" type="curve" smooth="yes"/>
      <point x="293" y="924" type="line"/>
      <point x="293" y="592" type="line"/>
      <point x="494" y="592" type="line" smooth="yes"/>
      <point x="557" y="592"/>
      <point x="610" y="604"/>
      <point x="653" y="629" type="curve" smooth="yes"/>
      <point x="706" y="659"/>
      <point x="733" y="703"/>
    </contour>
  </outline>
</glyph>
<glyph name="uniA4D3" format="2">
  <advance width="1038"/>
  <unicode hex="A4D3"/>
  <outline>
    <contour>
      <point x="934" y="543" type="curve" smooth="yes"/>
      <point x="934" y="378"/>
      <point x="892" y="248"/>
      <point x="809" y="154" type="curve" smooth="yes"/>
      <point x="722" y="54"/>
      <point x="597" y="4"/>
      <point x="434" y="4" type="curve" smooth="yes"/>
      <point x="123" y="4" type="line"/>
      <point x="123" y="1087" type="line"/>
      <point x="418" y="1087" type="line" smooth="yes"/>
      <point x="581" y="1087"/>
      <point x="708" y="1037"/>
      <point x="801" y="936" type="curve" smooth="yes"/>
      <point x="890" y="837"/>
      <point x="934" y="706"/>
    </contour>
    <contour>
      <point x="780" y="537" type="curve" smooth="yes"/>
      <point x="780" y="777"/>
      <point x="653" y="928"/>
      <point x="416" y="928" type="curve" smooth="yes"/>
      <point x="281" y="928" type="line"/>
      <point x="281" y="162" type="line"/>
      <point x="418" y="162" type="line" smooth="yes"/>
      <point x="645" y="162"/>
      <point x="780" y="308"/>
    </contour>
  </outline>
</glyph>
<glyph name="uniA4D4" format="2">
  <advance width="1085"/>
  <unicode hex="A4D4"/>
  <outline>
    <contour>
      <point x="967" y="926" type="line"/>
      <point x="614" y="926" type="line"/>
      <point x="614" y="4" type="line"/>
      <point x="457" y="4" type="line"/>
      <point x="457" y="926" type="line"/>
      <point x="111" y="926" type="line"/>
      <point x="111" y="1087" type="line"/>
      <point x="967" y="1087" type="line"/>
    </contour>
  </outline>
</glyph>
<glyph name="uniA4D6" format="2">
  <advance width="1141"/>
  <unicode hex="A4D6"/>
  <outline>
    <contour>
      <point x="1032" y="154" type="line"/>
      <point x="891" y="39"/>
      <point x="747" y="-18"/>
      <point x="598" y="-18" type="curve" smooth="yes"/>
      <point x="441" y="-18"/>
      <point x="318" y="38"/>
      <point x="231" y="150" type="curve" smooth="yes"/>
      <point x="151" y="251"/>
      <point x="111" y="382"/>
      <point x="111" y="543" type="curve" smooth="yes"/>
      <point x="111" y="705"/>
      <point x="148" y="835"/>
      <point x="221" y="934" type="curve" smooth="yes"/>
      <point x="303" y="1043"/>
      <point x="423" y="1098"/>
      <point x="580" y="1098" type="curve" smooth="yes"/>
      <point x="798" y="1098"/>
      <point x="945" y="1011"/>
      <point x="1022" y="836" type="curve"/>
      <point x="860" y="793" type="line"/>
      <point x="804" y="894"/>
      <point x="715" y="944"/>
      <point x="594" y="944" type="curve" smooth="yes"/>
      <point x="490" y="944"/>
      <point x="409" y="903"/>
      <point x="350" y="821" type="curve" smooth="yes"/>
      <point x="298" y="749"/>
      <point x="272" y="659"/>
      <point x="272" y="551" type="curve" smooth="yes"/>
      <point x="272" y="434"/>
      <point x="298" y="338"/>
      <point x="350" y="264" type="curve" smooth="yes"/>
      <point x="409" y="179"/>
      <point x="494" y="137"/>
      <point x="606" y="137" type="curve" smooth="yes"/>
      <point x="695" y="137"/>
      <point x="783" y="171"/>
      <point x="872" y="240" type="curve"/>
      <point x="872" y="408" type="line"/>
      <point x="580" y="408" type="line"/>
      <point x="580" y="567" type="line"/>
      <point x="1032" y="567" type="line"/>
    </contour>
  </outline>
</glyph>
<glyph name="uniA4D8" format="2">
  <advance width="1038"/>
  <unicode hex="A4D8"/>
  <outline>
    <contour>
      <point x="893" y="4" type="line"/>
      <point x="733" y="4" type="line"/>
      <point x="733" y="504" type="line"/>
      <point x="303" y="4" type="line"/>
      <point x="78" y="4" type="line"/>
      <point x="498" y="481" type="line"/>
      <point x="80" y="1087" type="line"/>
      <point x="281" y="1087" type="line"/>
      <point x="610" y="598" type="line"/>
      <point x="650" y="635"/>
      <point x="691" y="672"/>
      <point x="733" y="709" type="curve"/>
      <point x="733" y="1087" type="line"/>
      <point x="893" y="1087" type="line"/>
    </contour>
  </outline>
</glyph>
<glyph name="uniA4D9" format="2">
  <advance width="915"/>
  <unicode hex="A4D9"/>
  <outline>
    <contour>
      <point x="772" y="350" type="line" smooth="yes"/>
      <point x="772" y="251"/>
      <point x="740" y="165"/>
      <point x="676" y="94" type="curve" smooth="yes"/>
      <point x="611" y="19"/>
      <point x="529" y="-18"/>
      <point x="430" y="-18" type="curve" smooth="yes"/>
      <point x="237" y="-18"/>
      <point x="90" y="124"/>
      <point x="82" y="317" type="curve" smooth="yes"/>
      <point x="80" y="365" type="line"/>
      <point x="242" y="365" type="line"/>
      <point x="241" y="354"/>
      <point x="240" y="338"/>
      <point x="240" y="319" type="curve" smooth="yes"/>
      <point x="240" y="216"/>
      <point x="320" y="137"/>
      <point x="424" y="137" type="curve" smooth="yes"/>
      <point x="533" y="137"/>
      <point x="612" y="248"/>
      <point x="612" y="360" type="curve" smooth="yes"/>
      <point x="612" y="1087" type="line"/>
      <point x="772" y="1087" type="line"/>
    </contour>
  </outline>
</glyph>
<glyph name="uniA4DA" format="2">
  <advance width="1053"/>
  <unicode hex="A4DA"/>
  <outline>
    <contour>
      <point x="958" y="309" type="line"/>
      <point x="928" y="212"/>
      <point x="880" y="135"/>
      <point x="813" y="78" type="curve" smooth="yes"/>
      <point x="742" y="17"/>
      <point x="658" y="-14"/>
      <point x="561" y="-14" type="curve" smooth="yes"/>
      <point x="403" y="-14"/>
      <point x="286" y="43"/>
      <point x="209" y="156" type="curve" smooth="yes"/>
      <point x="144" y="253"/>
      <point x="111" y="384"/>
      <point x="111" y="549" type="curve" smooth="yes"/>
      <point x="111" y="704"/>
      <point x="146" y="832"/>
      <point x="215" y="932" type="curve" smooth="yes"/>
      <point x="294" y="1047"/>
      <point x="408" y="1104"/>
      <point x="557" y="1104" type="curve" smooth="yes"/>
      <point x="734" y="1104"/>
      <point x="898" y="988"/>
      <point x="950" y="821" type="curve"/>
      <point x="795" y="786" type="line"/>
      <point x="752" y="894"/>
      <point x="676" y="948"/>
      <point x="565" y="948" type="curve" smooth="yes"/>
      <point x="368" y="948"/>
      <point x="270" y="812"/>
      <point x="270" y="539" type="curve" smooth="yes"/>
      <point x="270" y="431"/>
      <point x="289" y="342"/>
      <point x="328" y="272" type="curve" smooth="yes"/>
      <point x="375" y="185"/>
      <point x="449" y="141"/>
      <point x="549" y="141" type="curve" smooth="yes"/>
      <point x="672" y="141"/>
      <point x="768" y="227"/>
      <point x="801" y="350" type="curve"/>
    </contour>
  </outline>
</glyph>
<glyph name="uniA4DB" format="2">
  <advance width="1075"/>
  <unicode hex="A4DB"/>
  <outline>
    <contour>
      <point x="942" y="535" type="curve" smooth="yes"/>
      <point x="942" y="394"/>
      <point x="906" y="271"/>
      <point x="834" y="164" type="curve" smooth="yes"/>
      <point x="752" y="43"/>
      <point x="644" y="-18"/>
      <point x="510" y="-18" type="curve" smooth="yes"/>
      <point x="310" y="-18"/>
      <point x="141" y="114"/>
      <point x="86" y="307" type="curve"/>
      <point x="236" y="369" type="line"/>
      <point x="263" y="234"/>
      <point x="380" y="141"/>
      <point x="516" y="141" type="curve" smooth="yes"/>
      <point x="605" y="141"/>
      <point x="674" y="185"/>
      <point x="723" y="274" type="curve" smooth="yes"/>
      <point x="764" y="347"/>
      <point x="784" y="431"/>
      <point x="784" y="526" type="curve" smooth="yes"/>
      <point x="784" y="626"/>
      <point x="764" y="716"/>
      <point x="725" y="795" type="curve" smooth="yes"/>
      <point x="676" y="893"/>
      <point x="607" y="942"/>
      <point x="518" y="942" type="curve" smooth="yes"/>
      <point x="395" y="942"/>
      <point x="313" y="888"/>
      <point x="270" y="780" type="curve"/>
      <point x="111" y="821" type="line"/>
      <point x="135" y="910"/>
      <point x="186" y="979"/>
      <point x="264" y="1028" type="curve" smooth="yes"/>
      <point x="337" y="1075"/>
      <point x="421" y="1098"/>
      <point x="516" y="1098" type="curve" smooth="yes"/>
      <point x="649" y="1098"/>
      <point x="756" y="1035"/>
      <point x="838" y="909" type="curve" smooth="yes"/>
      <point x="907" y="800"/>
      <point x="942" y="675"/>
    </contour>
  </outline>
</glyph>
<glyph name="uniA4DD" format="2">
  <advance width="936"/>
  <unicode hex="A4DD"/>
  <outline>
    <contour>
      <point x="819" y="928" type="line"/>
      <point x="293" y="928" type="line"/>
      <point x="293" y="625" type="line"/>
      <point x="764" y="625" type="line"/>
      <point x="764" y="463" type="line"/>
      <point x="293" y="463" type="line"/>
      <point x="293" y="4" type="line"/>
      <point x="133" y="4" type="line"/>
      <point x="133" y="1087" type="line"/>
      <point x="819" y="1087" type="line"/>
    </contour>
  </outline>
</glyph>
<glyph name="uniA4DE" format="2">
  <advance width="983"/>
  <unicode hex="A4DE"/>
  <outline>
    <contour>
      <point x="840" y="4" type="line"/>
      <point x="154" y="4" type="line"/>
      <point x="154" y="160" type="line"/>
      <point x="678" y="160" type="line"/>
      <point x="678" y="479" type="line"/>
      <point x="209" y="479" type="line"/>
      <point x="209" y="639" type="line"/>
      <point x="678" y="639" type="line"/>
      <point x="678" y="1087" type="line"/>
      <point x="840" y="1087" type="line"/>
    </contour>
  </outline>
</glyph>
<glyph name="uniA4DF" format="2">
  <advance width="1204"/>
  <unicode hex="A4DF"/>
  <outline>
    <contour>
      <point x="1063" y="4" type="line"/>
      <point x="901" y="4" type="line"/>
      <point x="901" y="799" type="line"/>
      <point x="844" y="699"/>
      <point x="771" y="586"/>
      <point x="684" y="459" type="curve" smooth="yes"/>
      <point x="667" y="434"/>
      <point x="641" y="422"/>
      <point x="604" y="422" type="curve" smooth="yes"/>
      <point x="555" y="422"/>
      <point x="493" y="474"/>
      <point x="420" y="578" type="curve" smooth="yes"/>
      <point x="375" y="649"/>
      <point x="330" y="720"/>
      <point x="285" y="791" type="curve"/>
      <point x="285" y="4" type="line"/>
      <point x="127" y="4" type="line"/>
      <point x="127" y="1087" type="line"/>
      <point x="272" y="1087" type="line"/>
      <point x="594" y="612" type="line"/>
      <point x="741" y="820"/>
      <point x="849" y="978"/>
      <point x="918" y="1087" type="curve"/>
      <point x="1063" y="1087" type="line"/>
    </contour>
  </outline>
</glyph>
<glyph name="uniA4E0" format="2">
  <advance width="1055"/>
  <unicode hex="A4E0"/>
  <outline>
    <contour>
      <point x="911" y="4" type="line"/>
      <point x="774" y="4" type="line"/>
      <point x="287" y="778" type="line"/>
      <point x="287" y="4" type="line"/>
      <point x="129" y="4" type="line"/>
      <point x="129" y="1087" type="line"/>
      <point x="283" y="1087" type="line"/>
      <point x="752" y="340" type="line"/>
      <point x="752" y="1087" type="line"/>
      <point x="911" y="1087" type="line"/>
    </contour>
  </outline>
</glyph>
<glyph name="uniA4E1" format="2">
  <advance width="911"/>
  <unicode hex="A4E1"/>
  <outline>
    <contour>
      <point x="795" y="4" type="line"/>
      <point x="129" y="4" type="line"/>
      <point x="129" y="1087" type="line"/>
      <point x="289" y="1087" type="line"/>
      <point x="289" y="164" type="line"/>
      <point x="795" y="164" type="line"/>
    </contour>
  </outline>
</glyph>
<glyph name="uniA4E3" format="2">
  <advance width="1040"/>
  <unicode hex="A4E3"/>
  <outline>
    <contour>
      <point x="956" y="4" type="line"/>
      <point x="768" y="4" type="line"/>
      <point x="737" y="82"/>
      <point x="698" y="163"/>
      <point x="653" y="248" type="curve" smooth="yes"/>
      <point x="594" y="359"/>
      <point x="546" y="429"/>
      <point x="508" y="459" type="curve"/>
      <point x="309" y="459" type="line"/>
      <point x="309" y="4" type="line"/>
      <point x="147" y="4" type="line"/>
      <point x="149" y="262"/>
      <point x="150" y="622"/>
      <point x="150" y="1083" type="curve"/>
      <point x="571" y="1083" type="line" smooth="yes"/>
      <point x="674" y="1083"/>
      <point x="758" y="1059"/>
      <point x="823" y="1010" type="curve" smooth="yes"/>
      <point x="896" y="957"/>
      <point x="932" y="880"/>
      <point x="932" y="780" type="curve" smooth="yes"/>
      <point x="932" y="639"/>
      <point x="833" y="499"/>
      <point x="696" y="471" type="curve"/>
      <point x="731" y="442"/>
      <point x="777" y="370"/>
      <point x="834" y="254" type="curve" smooth="yes"/>
    </contour>
    <contour>
      <point x="774" y="776" type="curve" smooth="yes"/>
      <point x="774" y="859"/>
      <point x="683" y="924"/>
      <point x="598" y="924" type="curve" smooth="yes"/>
      <point x="309" y="924" type="line"/>
      <point x="309" y="618" type="line"/>
      <point x="600" y="618" type="line" smooth="yes"/>
      <point x="696" y="618"/>
      <point x="774" y="684"/>
    </contour>
  </outline>
</glyph>
<glyph name="uniA4E4" format="2">
  <advance width="1067"/>
  <unicode hex="A4E4"/>
  <outline>
    <contour>
      <point x="924" y="4" type="line"/>
      <point x="500" y="4" type="line" smooth="yes"/>
      <point x="397" y="4"/>
      <point x="313" y="28"/>
      <point x="246" y="76" type="curve" smooth="yes"/>
      <point x="171" y="129"/>
      <point x="133" y="205"/>
      <point x="133" y="303" type="curve" smooth="yes"/>
      <point x="133" y="456"/>
      <point x="213" y="556"/>
      <point x="373" y="604" type="curve"/>
      <point x="316" y="703"/>
      <point x="222" y="864"/>
      <point x="92" y="1087" type="curve"/>
      <point x="285" y="1087" type="line"/>
      <point x="543" y="614" type="line"/>
      <point x="764" y="614" type="line"/>
      <point x="764" y="1087" type="line"/>
      <point x="924" y="1087" type="line"/>
    </contour>
    <contour>
      <point x="764" y="160" type="line"/>
      <point x="764" y="461" type="line"/>
      <point x="492" y="461" type="line" smooth="yes"/>
      <point x="441" y="461"/>
      <point x="397" y="449"/>
      <point x="358" y="424" type="curve" smooth="yes"/>
      <point x="315" y="395"/>
      <point x="293" y="357"/>
      <point x="293" y="309" type="curve" smooth="yes"/>
      <point x="293" y="260"/>
      <point x="315" y="222"/>
      <point x="358" y="195" type="curve" smooth="yes"/>
      <point x="395" y="172"/>
      <point x="441" y="160"/>
      <point x="494" y="160" type="curve" smooth="yes"/>
    </contour>
  </outline>
</glyph>
<glyph name="uniA4E7" format="2">
  <advance width="1040"/>
  <unicode hex="A4E7"/>
  <outline>
    <contour>
      <point x="911" y="4" type="line"/>
      <point x="752" y="4" type="line"/>
      <point x="752" y="479" type="line"/>
      <point x="287" y="479" type="line"/>
      <point x="287" y="4" type="line"/>
      <point x="129" y="4" type="line"/>
      <point x="129" y="1087" type="line"/>
      <point x="287" y="1087" type="line"/>
      <point x="287" y="637" type="line"/>
      <point x="752" y="637" type="line"/>
      <point x="752" y="1087" type="line"/>
      <point x="911" y="1087" type="line"/>
    </contour>
  </outline>
</glyph>
<glyph name="uniA4E9" format="2">
  <advance width="977"/>
  <unicode hex="A4E9"/>
  <outline>
    <contour>
      <point x="848" y="729" type="curve"/>
      <point x="692" y="729" type="line"/>
      <point x="693" y="736"/>
      <point x="694" y="743"/>
      <point x="694" y="750" type="curve" smooth="yes"/>
      <point x="694" y="858"/>
      <point x="615" y="944"/>
      <point x="506" y="944" type="curve" smooth="yes"/>
      <point x="451" y="944"/>
      <point x="407" y="919"/>
      <point x="373" y="870" type="curve" smooth="yes"/>
      <point x="342" y="827"/>
      <point x="326" y="777"/>
      <point x="326" y="721" type="curve" smooth="yes"/>
      <point x="326" y="4" type="line"/>
      <point x="158" y="4" type="line"/>
      <point x="158" y="731" type="line" smooth="yes"/>
      <point x="158" y="926"/>
      <point x="314" y="1100"/>
      <point x="506" y="1100" type="curve" smooth="yes"/>
      <point x="611" y="1100"/>
      <point x="695" y="1064"/>
      <point x="756" y="991" type="curve" smooth="yes"/>
      <point x="813" y="924"/>
      <point x="844" y="837"/>
    </contour>
  </outline>
</glyph>
<glyph name="uniA4EA" format="2">
  <advance width="1456"/>
  <unicode hex="A4EA"/>
  <outline>
    <contour>
      <point x="1352" y="1085" type="line"/>
      <point x="1118" y="4" type="line"/>
      <point x="928" y="4" type="line"/>
      <point x="731" y="698" type="line"/>
      <point x="528" y="4" type="line"/>
      <point x="340" y="4" type="line"/>
      <point x="100" y="1085" type="line"/>
      <point x="266" y="1085" type="line"/>
      <point x="440" y="291" type="line"/>
      <point x="635" y="911" type="line" smooth="yes"/>
      <point x="648" y="955"/>
      <point x="692" y="1016"/>
      <point x="731" y="1016" type="curve" smooth="yes"/>
      <point x="767" y="1016"/>
      <point x="812" y="950"/>
      <point x="825" y="909" type="curve" smooth="yes"/>
      <point x="1016" y="295" type="line"/>
      <point x="1180" y="1085" type="line"/>
    </contour>
  </outline>
</glyph>
<glyph name="uniA4EB" format="2">
  <advance width="1116"/>
  <unicode hex="A4EB"/>
  <outline>
    <contour>
      <point x="1024" y="4" type="line"/>
      <point x="827" y="4" type="line"/>
      <point x="766" y="95"/>
      <point x="675" y="238"/>
      <point x="555" y="432" type="curve"/>
      <point x="470" y="301"/>
      <point x="375" y="159"/>
      <point x="270" y="4" type="curve"/>
      <point x="72" y="4" type="line"/>
      <point x="449" y="563" type="line"/>
      <point x="117" y="1087" type="line"/>
      <point x="309" y="1087" type="line"/>
      <point x="557" y="686" type="line"/>
      <point x="575" y="713"/>
      <point x="662" y="847"/>
      <point x="817" y="1087" type="curve"/>
      <point x="1012" y="1087" type="line"/>
      <point x="664" y="563" type="line"/>
    </contour>
  </outline>
</glyph>
<glyph name="uniA4F0" format="2">
  <advance width="997"/>
  <unicode hex="A4F0"/>
  <outline>
    <contour>
      <point x="877" y="4" type="line"/>
      <point x="139" y="4" type="line"/>
      <point x="139" y="1087" type="line"/>
      <point x="856" y="1087" type="line"/>
      <point x="856" y="926" type="line"/>
      <point x="301" y="926" type="line"/>
      <point x="301" y="635" type="line"/>
      <point x="774" y="635" type="line"/>
      <point x="774" y="475" type="line"/>
      <point x="301" y="475" type="line"/>
      <point x="301" y="164" type="line"/>
      <point x="877" y="164" type="line"/>
    </contour>
  </outline>
</glyph>
<glyph name="uniA4F2" format="2">
  <advance width="481"/>
  <unicode hex="A4F2"/>
  <outline>
    <contour>
      <point x="322" y="4" type="line"/>
      <point x="162" y="4" type="line"/>
      <point x="162" y="1087" type="line"/>
      <point x="322" y="1087" type="line"/>
    </contour>
  </outline>
</glyph>
<glyph name="uniA4F5" format="2">
  <advance width="1108"/>
  <unicode hex="A4F5"/>
  <outline>
    <contour>
      <point x="993" y="4" type="line"/>
      <point x="834" y="4" type="line"/>
      <point x="834" y="643" type="line" smooth="yes"/>
      <point x="834" y="802"/>
      <point x="720" y="944"/>
      <point x="567" y="944" type="curve" smooth="yes"/>
      <point x="491" y="944"/>
      <point x="428" y="912"/>
      <point x="379" y="848" type="curve" smooth="yes"/>
      <point x="334" y="791"/>
      <point x="311" y="722"/>
      <point x="311" y="643" type="curve" smooth="yes"/>
      <point x="311" y="4" type="line"/>
      <point x="152" y="4" type="line"/>
      <point x="152" y="643" type="line" smooth="yes"/>
      <point x="152" y="774"/>
      <point x="188" y="883"/>
      <point x="260" y="969" type="curve" smooth="yes"/>
      <point x="337" y="1060"/>
      <point x="439" y="1106"/>
      <point x="567" y="1106" type="curve" smooth="yes"/>
      <point x="824" y="1106"/>
      <point x="993" y="903"/>
      <point x="993" y="643" type="curve" smooth="yes"/>
    </contour>
  </outline>
</glyph>
<glyph name="uniA4F6" format="2">
  <advance width="922"/>
  <unicode hex="A4F6"/>
  <outline>
    <contour>
      <point x="795" y="4" type="line"/>
      <point x="633" y="4" type="line"/>
      <point x="633" y="930" type="line"/>
      <point x="119" y="930" type="line"/>
      <point x="119" y="1087" type="line"/>
      <point x="795" y="1087" type="line"/>
    </contour>
  </outline>
</glyph>
<glyph name="uniA4FA" format="2">
  <advance width="961"/>
  <unicode hex="A4FA"/>
  <outline>
    <contour>
      <point x="899" y="123" type="curve" smooth="yes"/>
      <point x="899" y="40"/>
      <point x="837" y="-27"/>
      <point x="756" y="-27" type="curve" smooth="yes"/>
      <point x="673" y="-27"/>
      <point x="621" y="45"/>
      <point x="621" y="129" type="curve" smooth="yes"/>
      <point x="621" y="208"/>
      <point x="679" y="279"/>
      <point x="756" y="279" type="curve" smooth="yes"/>
      <point x="837" y="279"/>
      <point x="899" y="207"/>
    </contour>
    <contour>
      <point x="422" y="129" type="curve" smooth="yes"/>
      <point x="422" y="45"/>
      <point x="366" y="-27"/>
      <point x="285" y="-27" type="curve" smooth="yes"/>
      <point x="205" y="-27"/>
      <point x="147" y="41"/>
      <point x="147" y="121" type="curve" smooth="yes"/>
      <point x="147" y="205"/>
      <point x="204" y="279"/>
      <point x="287" y="279" type="curve" smooth="yes"/>
      <point x="363" y="279"/>
      <point x="422" y="208"/>
    </contour>
  </outline>
</glyph>
<glyph name="uniA4FD" format="2">
  <advance width="569"/>
  <unicode hex="A4FD"/>
  <outline>
    <contour>
      <point x="451" y="694" type="curve" smooth="yes"/>
      <point x="451" y="610"/>
      <point x="379" y="549"/>
      <point x="295" y="549" type="curve" smooth="yes"/>
      <point x="216" y="549"/>
      <point x="152" y="615"/>
      <point x="152" y="694" type="curve" smooth="yes"/>
      <point x="152" y="774"/>
      <point x="224" y="840"/>
      <point x="303" y="840" type="curve" smooth="yes"/>
      <point x="376" y="840"/>
      <point x="451" y="769"/>
    </contour>
    <contour>
      <point x="451" y="141" type="curve" smooth="yes"/>
      <point x="451" y="57"/>
      <point x="379" y="-4"/>
      <point x="295" y="-4" type="curve" smooth="yes"/>
      <point x="216" y="-4"/>
      <point x="152" y="62"/>
      <point x="152" y="141" type="curve" smooth="yes"/>
      <point x="152" y="221"/>
      <point x="224" y="287"/>
      <point x="303" y="287" type="curve" smooth="yes"/>
      <point x="376" y="287"/>
      <point x="451" y="216"/>
    </contour>
  </outline>
</glyph>
<glyph name="uniA4FE" format="2">
  <advance width="1186"/>
  <unicode hex="A4FE"/>
  <outline>
    <contour>
      <point x="1100" y="127" type="curve" smooth="yes"/>
      <point x="1100" y="42"/>
      <point x="1039" y="-25"/>
      <point x="954" y="-25" type="curve" smooth="yes"/>
      <point x="870" y="-25"/>
      <point x="807" y="38"/>
      <point x="807" y="123" type="curve" smooth="yes"/>
      <point x="807" y="207"/>
      <point x="870" y="270"/>
      <point x="954" y="270" type="curve" smooth="yes"/>
      <point x="1034" y="270"/>
      <point x="1100" y="206"/>
    </contour>
    <contour>
      <point x="743" y="438" type="line"/>
      <point x="201" y="438" type="line"/>
      <point x="201" y="594" type="line"/>
      <point x="743" y="594" type="line"/>
    </contour>
  </outline>
</glyph>
<glyph name="uniA4FF" format="2">
  <advance width="1008"/>
  <unicode hex="A4FF"/>
  <outline>
    <contour>
      <point x="827" y="637" type="line"/>
      <point x="115" y="637" type="line"/>
      <point x="115" y="764" type="line"/>
      <point x="827" y="764" type="line"/>
    </contour>
    <contour>
      <point x="827" y="283" type="line"/>
      <point x="115" y="283" type="line"/>
      <point x="115" y="410" type="line"/>
      <point x="827" y="410" type="line"/>
    </contour>
  </outline>
</glyph>
